<?xml version="1.0" standalone="no"?>
<!DOCTYPE svg PUBLIC "-//W3C//DTD SVG 1.1//EN" "http://www.w3.org/Graphics/SVG/1.1/DTD/svg11.dtd">
<svg xmlns="http://www.w3.org/2000/svg">
<metadata>Generated by Fontastic.me</metadata>
<defs>
<font id="iaaf" horiz-adv-x="512">
<font-face font-family="iaaf" units-per-em="512" ascent="480" descent="-32"/>
<missing-glyph horiz-adv-x="512" />

<glyph glyph-name="menuknowledge" unicode="&#100;" d="M61 270c0-54 43-98 97-98 54 0 98 44 98 98l0 10c9 11 14 24 14 39 0 15-5 28-14 38l0 11c0 54-44 97-98 97-54 0-97-43-97-97l0-11c-9-10-14-23-14-38 0-15 5-28 14-39z m135-14c0-21-17-37-38-37-20 0-37 16-37 37z m70-65c-21-39-61-65-108-65-46 0-87 26-107 65-31-29-51-71-51-117l0-74 317 0 0 74c0 46-20 88-51 117z m-50-137c-1-1-1-2-2-3 0 0 0 0 0 0l0 0c-3-3-6-4-9-4-1 0-3 0-4 0-11 2-20 9-26 18-4-4-10-7-17-7-6 0-12 3-16 7-6-9-16-16-27-18-1 0-2 0-3 0-4 0-7 1-9 4l0 0c0 0 0 0 0 0-1 1-2 2-2 3-9 15-13 33-13 51 0 6 6 11 12 11 16 0 31-7 42-18 4 4 10 7 16 7 7 0 13-3 17-7 11 11 26 18 41 18 7 0 12-5 12-11 1-18-3-36-12-51z m264 458l-128 0c-18 0-32-14-32-32l0-192c0-18 14-32 32-32l128 0c18 0 32 14 32 32l0 192c0 18-14 32-32 32z m-16-224l-96 0c-5 0-10 4-10 10 0 5 5 9 10 9l96 0c5 0 10-4 10-9 0-6-5-10-10-10z m0 51l-96 0c-5 0-10 4-10 10 0 5 5 9 10 9l96 0c5 0 10-4 10-9 0-6-5-10-10-10z m10 117l-68-68c-2-2-6-4-10-4-4 0-7 2-10 4l-28 28c-2 3-4 6-4 10 0 8 6 14 14 14 4 0 7-1 10-4l18-18 58 58c6 5 14 5 20 0 5-6 5-15 0-20z"/>
<glyph glyph-name="lighting" unicode="&#101;" d="M406 300l-51 200c-2 6-9 12-16 12l-166 0c-7 0-14-6-16-12l-51-200c-2-6 2-12 9-12l282 0c7 0 11 6 9 12z m-41-185c0 46-29 86-69 101l0 27c0 7-6 13-13 13l-54 0c-7 0-13-6-13-13l0-27c-40-15-69-55-69-101 0-31 13-58 33-78l-1-6c-4-17 7-31 24-31l106 0c17 0 28 14 24 31l-1 6c20 20 33 47 33 78z m19 141c0-7-6-13-13-13-7 0-13 6-13 13 0 7 6 13 13 13 7 0 13-6 13-13z m-13-26c-5 0-9-4-9-9l0-13c0-5 4-10 9-10 6 0 10 5 10 10l0 13c0 5-4 9-10 9z"/>
<glyph glyph-name="theme" unicode="&#103;" d="M501 384l-117 117c-7 7-17 11-27 11-11 0-20-4-28-11l-176-177 25-108c0 0 0-1 0-2 0-6-3-12-9-14l-114-58c-15-7-27-21-32-37l0 0-21-62c-1-3-2-7-2-11 0-17 15-32 32-32 4 0 8 1 11 2l62 21 0 0c0 0 0 0 0 0 16 5 30 17 37 32l58 114c2 6 8 9 14 9 1 0 2 0 2 0l108-25 177 176c7 8 11 17 11 28 0 10-4 20-11 27z m-417-332c-18 0-32 14-32 32 0 18 14 33 32 33 18 0 33-15 33-33 0-18-15-32-33-32z m240 119l-153 153 28 28 153-153z m170 165l-99-98c-3 9 8 32 15 46 7 15 9 20 7 23 0 1-2 3-5 3-5 0-15-6-29-15-11-7-25-16-30-16-1 0-1 0-1 0-1 4 9 24 16 36 13 23 19 35 13 39-2 1-4 2-8 2-5 0-13-2-22-4-8-2-16-4-21-4-2 0-3 0-3 0 0 5 12 23 21 37 21 32 30 48 25 55-1 1-2 2-5 2-8 0-25-12-52-33-21-15-46-34-54-34-6 7-3 31 1 45l73 74c6 5 13 8 21 8 8 0 15-3 20-8l117-117c5-5 8-12 8-20 0-8-3-15-8-21z"/>
<glyph glyph-name="utensils" unicode="&#104;" d="M307 363l0-84c0-21-14-39-33-44l10-211c0 0 0 0 0-1 0-13-10-23-23-23-13 0-24 10-24 23l0 1 10 211c-19 5-33 23-33 44l0 84c0 5 4 9 9 9 6 0 10-4 10-9l0-84 18 0 0 84c0 5 5 9 10 9 5 0 9-4 9-9l0-84 19 0 0 84c0 5 4 9 9 9 5 0 9-4 9-9z m57 66l55 17-56 11-14 55-14-56-56-14 55-13 15-92z m63-59c-15 2-47-42-51-89-3-41-1-70 15-90l-24-164c0-1 0-1 0-2-1-13 8-24 21-25 13-1 24 8 25 21l29 332c1 9-6 17-15 17z m-292-131c14 12 30 38 28 67-3 38-27 67-52 65-26-2-44-35-41-74 3-28 24-50 39-60l9-215c0 0 0 0 0-1 1-13 12-22 25-21 13 1 22 12 21 25 0 1 0 1 0 1z"/>
<glyph glyph-name="waittime" unicode="&#105;" d="M414 512c-53 0-97-44-97-98 0-53 44-97 97-97 54 0 98 44 98 97 0 54-44 98-98 98z m0-181c-46 0-83 37-83 83 0 47 37 84 83 84 47 0 84-37 84-84 0-46-37-83-84-83z m52 93l-41 0c0 0-1 0-1 1l0 50c0 5-4 9-10 9-5 0-9-4-9-9l0-50c-3-3-4-6-4-11 0-7 6-13 13-13 5 0 8 1 11 4l41 0c5 0 9 4 9 9 0 6-4 10-9 10z m-344 27c0-34-27-61-61-61-34 0-61 27-61 61 0 34 27 61 61 61 34 0 61-27 61-61z m242-403l-49 146 0 0c-5 15-18 25-35 25l-123 0c0 4-1 7-2 10l0 0-37 97c-9 23-31 40-57 40-34 0-61-28-61-61 0-8 1-15 4-22l36-97 0 0c9-23 31-40 58-40l156 0 40-121 0 0c5-15 19-25 35-25 20 0 37 16 37 37 0 4-1 7-2 11z m-206 74l-134 0c-13 0-24-11-24-24l0-74c0-13 11-24 24-24l134 0c14 0 25 11 25 24l0 74c0 13-11 24-25 24z"/>
<glyph glyph-name="notchecked" unicode="&#107;" d="M454 445c13 0 26-5 35-14 9-9 14-22 14-35 0-13-5-26-14-35l-280-280c-9-9-22-14-35-14-13 0-26 5-35 14l-116 116c-9 9-14 22-14 35 0 27 22 49 49 49 13 0 26-5 35-14l81-81 6 6 239 239c9 9 22 14 35 14m0 9c-15 0-30-6-41-17l-239-239-75 75c-10 10-25 17-41 17-32 0-58-26-58-58 0-16 7-31 17-41l116-116c10-11 25-17 41-17 16 0 31 6 41 17l280 280c23 23 23 59 0 82-11 11-26 17-41 17z"/>
<glyph glyph-name="barfacility" unicode="&#108;" d="M448 512c-31 0-57-22-63-51l17 0c2 9 8 18 15 24l19-24c13-1 24-12 25-26l17-24c-4-4-10-7-16-9l-5 19c-1-2-2-4-3-5l-11-12-3-3-12-14c6-2 13-3 20-3 35 0 64 29 64 64 0 35-29 64-64 64z m11-53c-2 2-4 4-7 5l-5 32c0 0 1 0 1 0 10 0 19-3 27-8z m4-15c1 1 1 3 1 4 0 0 0 1 0 1l30 14c1-5 2-10 2-15 0-2 0-5-1-7z m-126-432c0 0-39 33-81 47l0 159 188 207c3 2 4 5 4 9 0 8-6 14-14 14l-420 0c-8 0-14-6-14-14 0-4 1-7 4-9l188-207 0-159c-42-14-81-47-81-47-8-6-6-12 4-12l218 0c10 0 12 6 4 12z m-121 242c-3-2-6-3-9-3-3 0-7 1-9 4l-126 139c-5 5-5 13 0 18 6 4 14 4 19-1l126-139c4-5 4-13-1-18z"/>
<glyph glyph-name="parking" unicode="&#109;" d="M470 252l-57 114c-6 11-16 18-29 18l-256 0c-13 0-23-7-29-18l-57-114c-24-9-42-32-42-60l0-128 64 0 0-32c0-18 14-32 32-32 18 0 32 14 32 32l0 32 256 0 0-32c0-18 14-32 32-32 18 0 32 14 32 32l0 32 64 0 0 128c0 28-18 51-42 60z m-374-92c-18 0-32 14-32 32 0 5 1 10 3 14 6 11 16 18 29 18 18 0 32-14 32-32 0-18-14-32-32-32z m-9 110l41 82 256 0 0 0 41-82z m329-110c-18 0-32 14-32 32 0 18 14 32 32 32 13 0 23-7 29-18 2-4 3-9 3-14 0-18-14-32-32-32z m-388 264l25 0c8 0 16 1 22 3 6 2 12 5 16 8 4 4 8 9 10 14 2 5 4 11 4 18 0 6-2 12-4 18-2 5-6 10-10 14-4 4-10 7-16 10-6 2-14 3-22 3l-53 0 0-137 28 0z m0 65l25 0c4 0 8 0 11-2 3-1 5-3 7-5 2-2 3-4 4-7 1-3 1-5 1-8 0-3 0-6-1-9-1-2-2-4-4-6-2-2-4-3-7-4-3-1-7-2-11-2l-25 0z"/>
<glyph glyph-name="pestcontrol" unicode="&#110;" d="M438 355c-14 13-28 27-29 53-1 14 7 29 17 42l13-13 34 50-25 25-51-33 15-15c-12-16-24-36-23-57 1-33 20-52 35-66 16-16 21-22 15-35-2-3-6-5-12-4-16 2-36 22-43 71-9 57-41 73-67 77-20 3-42-2-61-9l0 12-79 0 0-79 20 0 0-21c-35-3-66-17-92-38l-7 0c-32 0-59-26-59-59l0-236c0-11 9-20 20-20l315 0c11 0 20 9 20 20l0 236c0 33-27 59-59 59l-7 0c-26 21-57 35-92 38l0 21 20 0 0 46c18 8 41 14 61 10 26-5 42-25 47-60 11-75 48-86 60-88 2 0 4 0 5 0 12 0 23 6 27 15 14 27-3 44-18 58z m-143-221c0-29-15-55-39-68l0-27-12 0 0 10-8 0 0-10-15 0 0 10-8 0 0-10-16 0 0 10-8 0 0-10-12 0 0 27c-23 13-39 39-39 68 0 43 35 79 79 79 43 0 78-36 78-79z m-31-20c0-8-7-16-16-16-9 0-16 8-16 16 0 9 7 16 16 16 9 0 16-7 16-16z m-63 0c0-8-7-16-16-16-9 0-16 8-16 16 0 9 7 16 16 16 9 0 16-7 16-16z m4-35l23 0-11 19z"/>
<glyph glyph-name="cleanliness" unicode="&#111;" d="M214 445c0 15-12 27-26 27l-9 0 117 13c7 0 13 6 13 14 0 7-6 13-13 13-1 0-1 0-1 0l-188-14c-8-3-13-11-13-19l0 0 0-7-65 0c-15 0-27-12-27-27l0-27 212 0z m285-54l-81 0c-2 0-3-1-5-1l-199-102 0 76c0 15-12 27-26 27l-161 0c-15 0-27-12-27-27l0-337c0-15 12-27 27-27l161 0c14 0 26 12 26 27l0 121c16 0 31 6 43 15l179 187 9 0c0-7 6-13 13-13l14 0c7 0 13 6 13 13l14 0c7 0 13 6 13 14l0 13c0 8-6 14-13 14z m-457-68l-13-222c-1-4-4-7-7-7-4 0-7 3-7 7l0 222c0 8 6 14 14 14 7 0 13-6 13-14 0 0 0 0 0 0z m-13 27c-8 0-14 6-14 14 0 7 6 13 14 13 7 0 13-6 13-13 0-8-6-14-13-14z m443-107c-10 0-30-34-30-51 0-17 13-30 30-30 16 0 30 13 30 30 0 17-21 51-30 51z m-16-66c-3-1-6 1-7 4-2 4-2 8 1 16 1-9 8-9 9-13 1-3-1-6-3-7z"/>
<glyph glyph-name="checked" unicode="&#112;" d="M495 437c-23 23-59 23-82 0l-239-239-75 75c-10 10-25 17-41 17-32 0-58-26-58-58 0-16 7-31 17-41l116-116c10-11 25-17 41-17 16 0 31 6 41 17l280 280c23 23 23 59 0 82z"/>
<glyph glyph-name="courteousness" unicode="&#114;" d="M250 416c0-53-43-96-96-96-53 0-96 43-96 96 0 53 43 96 96 96 53 0 96-43 96-96z m224-243c-38 25-96 84-122 121-13 19-35 58-70 58l-37 0c-20-29-53-48-91-48-25 0-48 8-66 21 0 0-1-1-2-1-50-34-86-103-86-164 0-40 15-71 45-93 10-7 21-12 34-17 22-8 47-12 75-12l64 0c14 0 25 12 25 26 0 14-11 26-25 26l-64 0c-34 0-73 4-83 36-4 13-1 49-1 53 1 3 4 6 7 5 4 0 7-3 6-7-1-14-3-39 0-47 6-19 28-28 71-28l64 0c21 0 38-17 38-38 0-21-17-38-38-38l-64 0c-29 0-55 4-77 11l0-37 237 0 0 246c2-3 4-6 6-9 26-37 121-138 160-141 17-1 32 14 32 32 0 18-29 38-38 45z m-336-48c-9 0-16 7-16 16 0 9 7 16 16 16 9 0 16-7 16-16 0-9-7-16-16-16z m0 64c-9 0-16 7-16 16 0 9 7 16 16 16 9 0 16-7 16-16 0-9-7-16-16-16z m0 64c-9 0-16 7-16 16 0 9 7 16 16 16 9 0 16-7 16-16 0-9-7-16-16-16z m83-128c-9 0-16 7-16 16 0 9 7 16 16 16 9 0 16-7 16-16 0-9-7-16-16-16z m0 64c-9 0-16 7-16 16 0 9 7 16 16 16 9 0 16-7 16-16 0-9-7-16-16-16z m0 64c-9 0-16 7-16 16 0 9 7 16 16 16 9 0 16-7 16-16 0-9-7-16-16-16z"/>
<glyph glyph-name="decor" unicode="&#115;" d="M288 448c0-18-14-32-32-32-18 0-32 14-32 32 0 18 14 32 32 32 18 0 32-14 32-32z m193-96l-179 82c-1-4-3-8-5-12l153-70-388 0 153 70c-2 4-4 8-5 12l-179-82c-17 0-31-15-31-32l0-256c0-18 14-32 32-32l448 0c18 0 32 14 32 32l0 256c0 17-14 32-31 32z m-417-288c-18 0-32 14-32 32 0 6 2 12 5 17l93 154c1 2 2 3 3 4 3 2 7 4 11 4 5 0 10-2 13-6 0-1 0-1 1-1l70-113 66 53c0 0 1 0 1 1 3 1 6 2 9 2 5 0 10-2 13-6 0-1 1-1 1-2l114-139z m336 147c-27 0-48 22-48 48 0 27 21 48 48 48 27 0 48-21 48-48 0-26-21-48-48-48z"/>
<glyph glyph-name="queuemanagement" unicode="&#116;" d="M256 282c0-57-46-103-102-103-57 0-103 46-103 103 0 56 46 102 103 102 56 0 102-46 102-102z m-18-128c-24-17-53-26-84-26-32 0-61 9-85 26-42-28-69-75-69-128l307 0c0 53-27 100-69 128z m44 128c0-18-4-35-10-50 49 7 86 50 86 101 0 56-45 102-102 102-28 0-53-11-72-29 56-14 98-64 98-124z m59-77c-24-16-54-26-85-26-4 0-8 0-11 1 38-23 67-60 80-103l85 0c0 53-28 100-69 128z m43 128c0-18-4-35-10-50 49 7 87 50 87 101 0 57-46 102-103 102-28 0-53-11-71-29 55-14 97-64 97-124z m59-77c-24-16-53-26-85-26-3 0-7 1-11 1 39-23 68-59 81-103l84 0c0 53-27 100-69 128z"/>
<glyph glyph-name="reservationmanagement" unicode="&#117;" d="M111 410c9 0 17 7 17 17l0 34c0 9-8 17-17 17-9 0-17-8-17-17l0-34c0-10 8-17 17-17z m222 0c9 0 17 7 17 17l0 34c0 9-8 17-17 17-10 0-17-8-17-17l0-34c0-10 7-17 17-17z m60-325l-342 0 0 239 290 0 103 103c0 9-8 17-17 17l-60 0 0-17c0-19-15-35-34-35-19 0-34 16-34 35l0 17-154 0 0-17c0-19-15-35-34-35-19 0-34 16-34 35l0 17-60 0c-9 0-17-8-17-17l0-376c0-9 8-17 17-17l410 0c9 0 17 8 17 17l0 183-51-51z m-107 164c0 0 1-8 6-13 5-5 13-6 13-6l115 115-19 19z m144 86l-115-114c0 0 1-9 6-14 5-5 13-5 13-5l115 114z m-86-143c0 0 0-8 5-13 5-6 14-6 14-6l114 115-19 19z m137 175c-37 37-46 32-46 32l-26-27 76-77 27 27c0 0 5 9-31 45z m-242-241l113 36c0 0-6-2-15 7-8 8-9 17-9 17 0 0-9 1-18 10-10 10-11 19-11 19 0 0-8 1-15 8-10 10-9 16-9 16z"/>
<glyph glyph-name="food" unicode="&#118;" d="M236 492l0-197c0-41-25-76-61-91l0-165c0-21-17-39-39-39-22 0-39 18-39 39l0 167c-34 16-58 50-58 89l0 197c0 11 9 20 20 20 11 0 20-9 20-20l0-118 39 0 0 118c0 11 9 20 20 20 11 0 20-9 20-20l0-118 39 0 0 118c0 11 9 20 20 20 11 0 19-9 19-20z m237-39l0-414c0-21-18-39-40-39-22 0-39 18-39 39l0 161c-23 8-40 30-40 56l0 197c0 33 27 59 60 59 32 0 59-26 59-59z"/>
<glyph glyph-name="freshness" unicode="&#119;" d="M318 304c-114-59-198-171-219-304 34 3 70 8 96 15 198 51 277 179 297 298 11 67 20 199 20 199 0 0-120-97-257-119-78-13-215-58-238-199-8-51-14-124-17-166 48 142 169 249 318 276z"/>
<glyph glyph-name="taste" unicode="&#66;" d="M284 216c-1 7-13 26-17 37-3 12 4 13 5 18 7 45-14 67-14 67 0 0 38 13 11 30-19 12-92 62-162 40-26-8-53-47-59-86-6-39 3-77 7-86 3-8-4-49-9-64l-3 1c0 0-38-48-43-75l176 0-2 7-13 7c17 12 23 26 23 26 53-32 54 10 53 14 0 3 13 13 13 17 0 4-6 8-14 15-6 6 0 13 6 9 14-11 16 3 17 7 1 3 3 3 3 3 18-5 22 7 22 13z m228 92l0 14-247-151c0 0 23-23 55-15 56 14 45 62 45 62z"/>
<glyph glyph-name="temperature" unicode="&#67;" d="M197 492c22 0 39-17 39-39l0-286 8-6c20-15 32-38 32-63 0-43-36-78-79-78-44 0-79 35-79 78 0 25 12 48 32 63l8 6 0 286c0 22 17 39 39 39m0 20c-33 0-59-26-59-59l0-276c-24-18-40-46-40-79 0-54 45-98 99-98 54 0 98 44 98 98 0 33-15 61-39 79l0 276c0 33-26 59-59 59z m59-414c0-32-26-59-59-59-33 0-59 27-59 59 0 26 16 48 39 56l0 299c0 11 9 20 20 20 11 0 20-9 20-20l0-299c23-8 39-30 39-56z m118 394c11 0 20-9 20-19 0-11-9-20-20-20-11 0-20 9-20 20 0 10 9 19 20 19m0 20c-22 0-39-18-39-39 0-22 17-40 39-40 22 0 40 18 40 40 0 21-18 39-40 39z"/>
<glyph glyph-name="seatingarrangement" unicode="&#120;" d="M310 406l-108 0 0 70c0 5 2 10 5 13 4 4 8 6 13 6l72 0c10 0 18-9 18-19z m-102 7l96 0 0 63c0 7-5 12-12 12l-72 0c-3 0-6-1-8-3-3-3-4-6-4-9z m48 93c11 0 21-1 28-2-7 0-17-1-28-1-11 0-21 1-28 1 7 1 17 2 28 2l0 0m0 6c0 0 0 0 0 0 0 0 0 0 0 0-28 0-51-3-51-8 0-4 23-7 51-7 28 0 51 3 51 7 0 5-23 8-51 8z m-157-228l-61 35c-4 2-7 6-9 11-1 5 0 10 2 14l36 62c3 6 10 10 16 10 4 0 7-1 10-3l60-35z m-16 125c-4 0-8-2-10-6l-36-62c-2-3-2-6-1-9 1-3 3-6 5-7l55-32 48 83-55 32c-2 1-4 1-6 1z m-28-5c-3-6-7-15-13-24-6-10-11-18-15-24 3 7 7 15 13 25 5 10 11 17 15 23m11 21c-5 0-18-18-32-41-14-24-22-46-19-48 1 0 1 0 1 0 5 0 18 17 32 40 14 25 22 46 19 49-1 0-1 0-1 0z m17-329c-6 0-13 4-16 10l-36 62c-5 9-2 20 7 25l61 35 54-94-60-35c-3-2-6-3-10-3z m13 123l-55-32c-5-3-7-10-4-16l36-62c3-6 11-8 16-5l55 32z m-69-63c4-6 9-14 15-24 6-9 10-18 13-24-4 6-10 13-15 23-6 10-10 18-13 25m-11 20c0 0 0 0-1 0-3-2 5-24 19-48 14-23 27-41 32-41 0 0 0 0 1 0 3 3-5 24-19 49-14 23-27 40-32 40z m276-159l-72 0c-10 0-18 9-18 19l0 70 108 0 0-70c0-5-2-10-5-13-4-4-8-6-13-6z m-84 82l0-63c0-7 5-12 12-12l72 0c3 0 6 1 8 3 3 3 4 6 4 9l0 63z m48-90c11 0 21-1 28-1-7-1-17-2-28-2l0 0c-11 0-21 1-28 2 7 0 17 1 28 1m0 6c-28 0-51-3-51-7 0-5 23-8 51-8 0 0 0 0 0 0 0 0 0 0 0 0 28 0 51 3 51 8 0 4-23 7-51 7z m173 81c-4 0-7 1-10 3l-60 35 54 94 61-35c4-2 7-6 9-11 1-5 0-10-2-14l-36-62c-3-6-10-10-16-10z m-61 40l55-32c5-3 13-1 16 5l36 62c2 3 2 6 1 9 0 3-3 6-5 7l-55 32z m117 20c-3-7-7-15-13-25-5-10-11-17-15-23 3 6 7 15 13 24 6 10 11 18 15 24m11 20c-5 0-18-17-32-40-14-25-22-46-19-49 1 0 1 0 1 0 5 0 18 18 32 41 14 24 22 46 19 48-1 0-1 0-1 0z m-83 108l-54 94 60 35c3 2 6 3 10 3 6 0 13-4 16-10l36-62c5-9 2-20-7-25z m-45 92l48-83 55 32c5 3 7 10 4 16l-36 62c-3 6-11 8-16 5z m89 28c4-6 10-13 15-23 6-10 10-18 13-25-4 6-9 14-15 23-6 10-10 19-13 25m-11 21c0 0 0 0-1 0-3-3 5-24 19-49 14-23 27-40 32-40 0 0 0 0 1 0 3 2-5 24-19 48-14 23-27 41-32 41z m-83-169c0-59-48-107-107-107-59 0-107 48-107 107 0 59 48 107 107 107 59 0 107-48 107-107z"/>
<glyph glyph-name="stars5" unicode="&#71;" d="M77 265c0 2-2 4-4 4l-20 3-9 18c-1 2-3 3-5 3-2 0-4-1-5-3l-9-18-20-3c-2 0-4-2-5-4 0-2 0-4 2-6l14-14-3-19c-1-3 0-5 2-6 2-1 4-1 6-1l18 10 17-10c2 0 5 0 7 1 1 1 2 3 2 6l-3 19 14 14c1 2 2 4 1 6z m109 0c-1 2-3 4-5 4l-20 3-8 18c-1 2-3 3-6 3-2 0-4-1-5-3l-9-18-19-3c-3 0-4-2-5-4-1-2 0-4 1-6l15-14-4-19c0-3 1-5 3-6 1-1 4-1 6-1l17 10 18-10c2 0 4 0 6 1 2 1 3 3 2 6l-3 19 14 14c2 2 3 4 2 6z m109 0c-1 2-3 4-5 4l-20 3-9 18c-1 2-3 3-5 3-2 0-4-1-5-3l-9-18-20-3c-2 0-4-2-5-4 0-2 0-4 2-6l14-14-3-19c0-3 0-5 2-6 2-1 4-1 6-1l18 10 18-10c2 0 4 0 6 1 2 1 2 3 2 6l-3 19 14 14c2 2 2 4 2 6z m108 0c-1 2-2 4-5 4l-19 3-9 18c-1 2-3 3-5 3-3 0-5-1-6-3l-8-18-20-3c-2 0-4-2-5-4-1-2 0-4 2-6l14-14-3-19c-1-3 0-5 2-6 2-1 4-1 6-1l18 10 17-10c2 0 5 0 6 1 2 1 3 3 3 6l-4 19 15 14c1 2 2 4 1 6z m109 0c-1 2-3 4-5 4l-20 3-9 18c-1 2-3 3-5 3-2 0-4-1-5-3l-9-18-20-3c-2 0-4-2-4-4-1-2 0-4 1-6l14-14-3-19c0-3 1-5 2-6 2-1 5-1 7-1l17 10 18-10c2 0 4 0 6 1 2 1 3 3 2 6l-3 19 14 14c2 2 2 4 2 6z"/>
<glyph glyph-name="stars4" unicode="&#72;" d="M98 268c-1 2-3 4-6 5l-25 3-11 23c-1 3-4 4-7 4-3 0-5-1-6-4l-12-23-25-3c-2-1-5-3-6-5-1-3 0-6 2-8l18-18-4-25c0-2 1-5 3-7 2-1 5-2 8 0l22 11 23-11c2-2 5-1 7 0 3 2 4 5 3 7l-4 25 18 18c2 2 3 5 2 8z m138 0c-1 2-3 4-6 5l-25 3-11 23c-2 3-4 4-7 4-3 0-5-1-7-4l-11-23-25-3c-3-1-5-3-6-5-1-3 0-6 2-8l18-18-4-25c-1-2 1-5 3-7 2-1 5-2 8 0l22 11 23-11c2-2 5-1 7 0 3 2 4 5 3 7l-4 25 18 18c2 2 3 5 2 8z m138 0c-1 2-3 4-6 5l-25 3-11 23c-2 3-4 4-7 4-3 0-5-1-7-4l-11-23-25-3c-3-1-5-3-6-5-1-3 0-6 2-8l18-18-4-25c-1-2 0-5 3-7 2-1 5-2 7 0l23 11 22-11c3-2 6-1 8 0 2 2 4 5 3 7l-4 25 18 18c2 2 3 5 2 8z m138 0c-1 2-4 4-6 5l-25 3-12 23c-1 3-3 4-6 4-3 0-6-1-7-4l-11-23-25-3c-3-1-5-3-6-5-1-3 0-6 2-8l18-18-4-25c-1-2 0-5 3-7 2-1 5-2 7 0l23 11 22-11c3-2 6-1 8 0 2 2 3 5 3 7l-4 25 18 18c2 2 3 5 2 8z"/>
<glyph glyph-name="stars3" unicode="&#73;" d="M134 272c-1 4-4 6-8 7l-34 5-16 31c-1 3-5 6-9 6-4 0-7-3-9-6l-15-31-34-5c-4-1-7-3-9-7-1-4 0-8 3-10l25-25-6-34c-1-3 1-7 4-10 3-2 7-2 11 0l30 16 31-16c3-2 8-2 11 0 3 3 4 7 4 10l-6 34 25 25c2 2 3 6 2 10z m189 0c-1 4-5 6-8 7l-35 5-15 31c-2 3-5 6-9 6-4 0-7-3-9-6l-15-31-35-5c-3-1-7-3-8-7-1-4 0-8 3-10l25-25-6-34c-1-3 0-7 4-10 3-2 7-2 10 0l31 16 31-16c3-2 7-2 10 0 4 3 5 7 4 10l-6 34 25 25c3 2 4 6 3 10z m189 0c-2 4-5 6-9 7l-34 5-15 31c-2 3-5 6-9 6-4 0-8-3-9-6l-16-31-34-5c-4-1-7-3-8-7-1-4 0-8 2-10l25-25-6-34c0-3 1-7 4-10 3-2 8-2 11 0l31 16 30-16c4-2 8-2 11 0 3 3 5 7 4 10l-6 34 25 25c3 2 4 6 3 10z"/>
<glyph glyph-name="arrowsq-down" unicode="&#74;" d="M512 341l-171-170-85-86-85 86-171 170 85 86 171-171 171 171z"/>
<glyph glyph-name="arrowsq-left" unicode="&#75;" d="M341 0l-170 171-86 85 86 85 170 171 86-85-171-171 171-171z"/>
<glyph glyph-name="expand" unicode="&#76;" d="M421 165l-165-165-165 165 55 54 110-109 110 109z m-330 182l165 165 165-165-55-54-110 109-110-109z"/>
<glyph glyph-name="favorite" unicode="&#77;" d="M512 367c-2 73-60 132-133 135-1 0-8 0-10 0-48-2-90-29-113-67-23 38-65 65-113 67-2 0-9 0-10 0-73-3-131-62-133-135 0-1 0-6 0-7 2-148 115-278 256-350 141 72 254 202 256 350 0 1 0 6 0 7z"/>
<glyph glyph-name="popin" unicode="&#78;" d="M256 0l-96 96 352 352-64 64-352-352-96 96 0-256z"/>
<glyph glyph-name="popout" unicode="&#79;" d="M256 512l96-96-352-352 64-64 352 352 96-96 0 256z"/>
<glyph glyph-name="star-line" unicode="&#80;" d="M256 489c10 0 18-6 23-15l58-118 3-6 7-1 130-19c10-1 18-8 21-17 3-9 0-20-7-26l-94-92-5-5 1-7 23-130c1-9-3-19-11-25-4-3-9-5-14-5-5 0-9 1-12 3l-117 62-6 3-6-3-117-62c-3-2-8-3-12-3-5 0-10 2-15 5-7 6-11 16-10 25l23 130 1 7-5 5-95 92c-6 6-9 17-6 26 3 9 11 16 21 17l130 19 7 1 3 6 58 118c5 9 13 15 23 15m0 12c-15 0-28-8-34-21l-59-118-130-19c-14-2-26-12-31-26-5-15-1-30 10-39l94-93-22-130c-3-14 3-28 15-37 7-5 15-7 22-7 7 0 13 1 18 4l117 62 117-62c5-3 11-4 18-4 7 0 15 2 22 7 12 9 18 23 15 37l-22 130 94 93c11 9 15 24 10 39-4 14-17 24-31 26l-130 19-59 118c-6 13-19 21-34 21z"/>
<glyph glyph-name="statistics" unicode="&#81;" d="M508 66l-500 0 0 384c0 2-2 4-4 4-2 0-4-2-4-4l0-388c0-2 2-4 4-4l504 0c2 0 4 2 4 4 0 2-2 4-4 4z m-427 45c17 0 30 13 30 29 0 7-3 14-8 19l47 69c3-1 6-1 9-1 5 0 10 1 14 4l77-77c-2-4-4-9-4-14 0-16 13-29 29-29 16 0 29 13 29 29 0 10-5 19-12 24l59 179c1 0 1 0 2 0 4 0 7 1 11 2l82-109c-4-5-6-11-6-18 0-16 13-29 29-29 16 0 29 13 29 29 0 16-13 29-29 29-4 0-8 0-11-2l-82 110c4 5 6 11 6 17 0 16-13 29-29 29-16 0-29-13-29-29 0-10 5-19 13-24l-60-179c-1 0-1 0-2 0-5 0-10-2-14-4l-77 77c3 4 4 9 4 14 0 16-13 29-29 29-16 0-29-13-29-29 0-7 3-14 7-19l-46-70c-3 1-6 2-10 2-16 0-29-13-29-29 0-16 13-29 29-29z"/>
<glyph glyph-name="surveys" unicode="&#82;" d="M428 421l-67 1c0-21-17-38-38-38l-134 0c-20 0-37 17-37 38l-67 0c-21 0-38-17-38-38l0-346c0-20 16-37 37-37l343-1c21 0 38 17 38 38l0 346c0 20-16 37-37 37z m-55-161l-137-138c-5-6-13-9-20-9-8 0-15 3-21 9l-56 57c-5 5-9 12-9 20 0 16 13 29 29 29 8 0 15-3 20-8l37-38 117 118c11 11 29 11 40 0 11-11 11-29 0-40z m-184 139l67 0 68 0c12 0 22 10 22 23 0 12-10 22-22 22l-23 0c-4 0-7 4-7 8l0 22c0 21-17 38-37 38-21 0-38-17-38-38l0-22c0-4-3-8-7-8l-23 0c-12 0-22-10-22-22 0-13 10-23 22-23z m67 98c13 0 23-10 23-23 0-12-10-22-23-22-12 0-22 10-22 22 0 13 10 23 22 23z"/>
<glyph glyph-name="surveys-line" unicode="&#83;" d="M84 422l1-13 56 0c5-22 25-38 48-38l134 0c24 0 43 16 49 38l56 0c14 0 25-12 25-25l-1-346c0-14-11-25-25-25l-343 0c-7 0-13 3-17 8-5 4-8 11-8 17l1 346c0 14 11 25 24 25l0 13m132-221l-28 28c-8 7-18 12-29 12-23 0-41-19-41-42 0-11 4-21 12-29l56-57c8-8 19-13 30-13 11 0 21 5 29 13l137 138c16 16 16 42 0 58-7 8-18 12-29 12-11 0-21-4-29-12l-108-108m-132 221c-20 0-37-17-37-38l0-346c0-20 16-37 37-37l343-1c0 0 1 0 1 0 20 0 37 17 37 38l0 346c0 20-16 37-37 37l-67 1c0-21-17-38-38-38 0 0 0 0 0 0l-134 0c-20 0-37 17-37 38l-67 0c0 0 0 0-1 0z m132-240l117 118c6 6 13 9 20 9 8 0 15-3 20-9 11-11 11-29 0-40l-137-138c-5-6-13-9-20-9-8 0-15 3-20 9l-57 57c-5 5-9 12-9 20 0 16 13 29 29 29 0 0 0 0 0 0 8 0 15-3 20-8z m40 330l1-13c13 0 24-11 24-25l0-22c0-11 9-21 20-21l23 0c2 0 5-1 6-2 2-2 3-5 3-7 0-6-4-10-9-10l-68 0-67 0c-2 0-5 1-7 3-1 2-2 4-2 7 0 5 4 10 9 10l23 0c11 0 20 9 20 20l0 22c0 14 11 25 24 25l0 13m0-56l0 0c11 0 19 8 19 18 0 5-2 10-6 13-3 4-8 6-13 6-10 0-18-9-18-19 0-10 8-18 18-18m0 56c-20 0-37-17-37-38l0-22c0-4-3-8-7-8l-23 0c0 0 0 0 0 0-12 0-22-10-22-22 0-13 10-23 22-23l67 0 68 0c12 0 22 10 22 23 0 12-10 22-22 22l-23 0c-4 0-7 4-7 8l0 22c0 21-17 38-37 38 0 0-1 0-1 0z m0-43c0 0 0 0 0 0-3 0-5 2-5 5 0 3 2 6 5 6 0 0 0 0 0 0 3 0 6-3 6-6 0-3-3-5-6-5z"/>
<glyph glyph-name="qrcode-fill" unicode="&#85;" d="M253 335c-42 0-76-34-76-76 0-41 34-75 76-75 41 0 75 34 75 75 0 42-34 76-75 76z m131 177l-256 0c-70 0-128-58-128-128l0-256c0-70 58-128 128-128l256 0c70 0 128 58 128 128l0 256c0 70-58 128-128 128z m-86-57l151 0 0-151-60 0c-4 10-8 19-13 28l45 0 0 96-96 0 0-45c-8 5-18 9-27 12z m151-256l0-30-31 0 0 30-15 0 0 60 15 0 0 30 31 0 0-30-16 0 0-60z m-85 151c-6 7-13 14-21 20l0 40 60 0 0-60z m-126 90l30 0 0-30-30 0z m-181 15l151 0 0-60c-10-3-19-7-28-12l0 45-96 0 0-96 45 0c-5-9-9-18-12-28l-60 0z m105-45l0-40c-7-6-14-13-20-20l-40 0 0 60z m-105-136l53 0c0-5 0-10 0-15 0-10 1-20 3-30l-26 0 0 15-30 0z m151-211l-151 0 0 151 60 0c3-9 7-18 12-27l-45 0 0-96 96 0 0 45c9-5 18-9 28-12z m-66 106c6-8 13-15 20-21l0-39-60 0 0 60z m216-106l-90 0 0 31-30 0 0 30 30 0 0-30 30 0 0 30 30 0 0-30 30 0 0-31z m91 0c-9-8-24-8-32 0l-97 97c-19-14-42-21-67-21-67 0-121 54-121 120 0 67 54 121 121 121 66 0 120-54 120-121 0-25-7-48-21-67l97-97c8-8 8-23 0-32z"/>
<glyph glyph-name="home" unicode="&#86;" d="M400 246l-118 103c0 0 0 0-1 1-6 5-15 8-25 8-9 0-18-3-24-8-1-1-1-1-1-1l-119-103c-8-7-14-17-14-29l0-178c0-12 6-23 15-30 7-6 15-9 25-9l20 0c9 0 18 3 24 9 9 7 15 18 15 30l0 138c0 13 6 23 14 31 7 5 16 9 25 9l40 0c9 0 18-4 25-9 8-7 14-18 14-31l0-138c0-12 6-23 15-30 6-6 15-9 24-9l20 0c10 0 18 3 25 9 9 7 15 18 15 30l0 178c0 11-6 22-14 29z m98 80l-45 36 0 111c0 11-9 19-20 19l-39 0c-11 0-20-8-20-19l0-46-93 76c-7 6-16 9-25 9-9 0-18-3-25-9l-217-177c-8-7-14-18-14-31 0-21 18-39 39-39 10 0 19 3 25 9l192 157 192-157c6-6 15-9 25-9 21 0 39 18 39 39 0 13-6 24-14 31z"/>
<glyph glyph-name="help" unicode="&#87;" d="M230 207c0 8 1 15 2 21 1 6 2 12 4 17 2 5 5 10 8 14 4 5 8 9 13 14 4 3 7 6 10 10 4 3 7 6 9 9 2 4 4 7 6 11 1 3 2 7 2 11 0 10-3 17-7 22-5 5-11 7-20 7-4 0-7 0-11-1-3-1-6-3-9-5-2-3-4-6-6-10-2-3-2-8-3-13l-49 0c0 12 2 22 6 31 4 9 10 16 17 22 7 6 15 10 24 13 10 3 20 4 31 4 12 0 23-1 32-4 10-3 18-8 24-13 7-6 12-13 15-22 4-8 6-18 6-28 0-8-2-15-4-21-2-6-5-12-9-17-4-6-9-11-14-16-5-5-10-10-16-15-3-3-6-6-8-9-2-3-3-6-5-9-1-4-2-7-3-11 0-3 0-8-1-12z m-5-53c0 4 1 7 2 11 2 3 4 6 6 8 2 2 5 4 9 6 3 1 7 2 11 2 5 0 8-1 12-2 3-2 6-4 9-6 2-2 4-5 5-8 2-4 2-7 2-11 0-3 0-7-2-10-1-3-3-6-5-9-3-2-6-4-9-5-4-1-7-2-12-2-4 0-8 1-11 2-4 1-7 3-9 5-2 3-4 6-6 9-1 3-2 7-2 10m31 332c127 0 230-103 230-230 0-127-103-230-230-230-127 0-230 103-230 230 0 127 103 230 230 230m0 26c-141 0-256-115-256-256 0-141 115-256 256-256 141 0 256 115 256 256 0 141-115 256-256 256z"/>
<glyph glyph-name="arrowsq-right" unicode="&#88;" d="M171 512l170-171 86-85-86-85-170-171-86 85 171 171-171 171z"/>
<glyph glyph-name="arrowsq-up" unicode="&#89;" d="M0 171l171 170 85 86 85-86 171-170-85-86-171 171-171-171z"/>
<glyph glyph-name="calendar" unicode="&#90;" d="M480 416l-96 0 0 64c0 18-14 32-32 32-18 0-32-14-32-32l0-64-128 0 0 64c0 18-14 32-32 32-18 0-32-14-32-32l0-64-96 0c-18 0-32-14-32-32l0-352c0-18 14-32 32-32l448 0c18 0 32 14 32 32l0 352c0 18-14 32-32 32z m6-384c0-4-2-6-6-6l-448 0c-4 0-6 2-6 6l0 262 460 0z m-301 46l21 0 0 165-4 0-59-23 0-19 42 16z m95 14c5-6 10-10 16-12 7-3 14-4 22-4 8 0 15 1 21 4 7 2 12 6 16 12 5 5 8 13 11 22 2 9 3 21 3 34l0 25c0 13-1 25-3 34-3 9-6 16-11 22-4 5-10 9-16 12-6 2-13 3-21 3-8 0-15-1-22-3-6-3-12-7-16-12-5-6-8-13-10-22-3-9-4-21-4-34l0-25c0-13 1-25 4-34 2-9 6-17 10-22z m7 84c0 10 0 17 2 24 1 6 3 12 6 16 2 4 5 7 9 8 4 2 9 3 14 3 5 0 9-1 13-3 4-1 7-4 10-8 2-4 4-10 5-16 2-7 2-14 2-24l0-31c0-9 0-17-1-24-2-6-4-12-6-16-3-4-6-7-10-9-4-2-8-3-13-3-5 0-10 1-13 3-4 2-8 5-10 9-3 4-5 10-6 16-2 7-2 15-2 24z"/>
<glyph glyph-name="categories" unicode="&#48;" d="M158 311c-6 0-12 2-17 6l-122 85c-8 6-13 15-13 25 0 14 11 27 26 29l3 1 314 48c2 0 3 1 5 1 6 0 12-2 17-6l1-1 0 0 121-84c8-6 13-15 13-25 0-15-11-27-26-30l-3 0 0 0-312-48-2 0c-2-1-3-1-5-1z m196 188c4 0 9-1 13-4l3-2 114-80 0 0 5-3c6-5 10-12 10-20 0-11-8-22-20-23l-6-1-307-48-1 0-3 0c-1 0-2 0-4 0-4 0-9 1-13 4l-1 0-109 76 1 0-13 9c-6 5-10 12-10 20 0 11 8 21 20 23l5 1 310 48 0 0 2 0c1 0 2 0 4 0m0 13c-2 0-4 0-6 0l0 0-317-49 0 0c-18-3-31-18-31-36 0-13 6-24 16-30l0 0 122-86 0 0c6-4 13-6 20-6 2 0 4 0 6 0l0 0 317 49 0 0c18 3 31 18 31 36 0 13-6 23-16 30l0 0-122 85 0 0c-5 5-13 7-20 7z m-196-298c-6 0-12 1-17 5l-122 85c-8 6-13 15-13 25 0 5 2 10 4 15l126-88 0 0c6-4 14-6 22-6 2 0 4 0 6 0l1 0 320 49 0 1c6 1 12 4 17 7 2-4 4-9 4-14 0-15-11-28-26-30l-3-1-313-48-1 0c-2 0-3 0-5 0z m-145 120l117-82 4-2 0 0c7-5 16-7 24-7 2 0 4 0 6 0l0 0 2 1 317 49 7 1 0 0c3 1 6 2 9 4 0-2 0-4 0-5 0-12-8-22-20-24l-6-1-309-47 0 0-2-1c-1 0-2 0-4 0-4 0-9 2-13 4l-3 3 0 0-107 74 1 0-13 9c-6 4-10 11-10 19 0 2 0 3 0 5m-4 20c-5-7-9-15-9-25 0-12 6-23 16-30l0 0 122-85 0 0c6-4 13-7 20-7 2 0 4 0 6 1l0 0 317 48 0 0c18 3 31 18 31 37 0 9-4 17-9 24-6-6-13-10-22-12l0 0-317-49 0 0c-2 0-4 0-6 0-7 0-14 2-20 7l0 0-122 85 0 0c-3 2-5 3-7 6z m149-244c-6 0-12 2-17 5l-117 83-5 3c-8 5-13 15-13 25 0 5 2 10 4 14l124-86c7-5 16-8 24-8 2 0 4 0 6 0l1 0 320 50 0 0c6 1 12 4 17 8 2-5 4-10 4-15 0-15-11-28-26-30l-3 0-313-48-1-1c-2 0-3 0-5 0z m-145 120l117-82 1 0 0 0c8-6 18-8 27-8 2 0 4 0 5 0l1 0 2 0 317 49 7 1 0 1c3 0 6 2 9 3 0-2 0-3 0-5 0-12-8-22-20-23l-5-1-310-48 0 0-2 0c-1 0-2-1-4-1-4 0-9 2-13 5l-3 2 0 0-110 77 0 0-9 6c-6 5-10 12-10 20 0 1 0 3 0 4m-4 20c-5-7-9-15-9-24 0-13 6-24 16-30l0 0 122-86 0 0c6-4 13-6 20-6 2 0 4 0 6 0l0 0 317 49 0 0c18 3 31 18 31 36 0 9-4 18-9 24-6-6-13-10-22-11l0 0-317-49 0 0c-2 0-4-1-6-1-7 0-15 3-20 7l0 0-122 85 0 0c-3 2-5 4-7 6z m149-244c-6 0-12 2-17 6l-122 85c-8 6-13 15-13 25 0 5 2 10 4 15l124-87c7-5 16-8 24-8 2 0 4 0 5 1l2 0 320 49 0 0c6 2 12 4 17 8 2-4 4-9 4-15 0-14-11-27-26-29l-3-1-313-48-1 0c-2 0-3-1-5-1z m-145 121l117-82 1-1 0 0c8-5 18-8 27-8 2 0 3 0 4 0l1 0 3 1 317 48 7 1 0 1c3 1 6 2 9 4 0-2 0-4 0-6 0-11-8-21-20-23l-5-1-310-48 0 0-2 0c-1 0-2 0-4 0-4 0-9 1-13 4l-3 2 0 0-107 75 0 0-12 8c-6 5-10 12-10 20 0 2 0 3 0 5m-4 19c-5-6-9-15-9-24 0-13 6-23 16-30l0 0 122-85 0 0c6-5 13-7 20-7 2 0 4 0 6 0l0 0 317 49 0 0c18 3 31 18 31 36 0 10-4 18-9 25-6-6-13-11-22-12l0 0-317-49 0 0c-2 0-4 0-6 0-7 0-15 2-20 6l0 0-122 86 0 0c-3 1-5 3-7 5z"/>
<glyph glyph-name="inbox" unicode="&#49;" d="M461 512l-410 0-51-307 20-205 472 0 20 205z m-356-64l302 0 40-243-96 0-95-103-95 103-96 0z"/>
<glyph glyph-name="important" unicode="&#50;" d="M320 64c0-35-29-64-64-64-35 0-64 29-64 64 0 35 29 64 64 64 35 0 64-29 64-64z m-115 159c4-25 25-44 51-44 26 0 47 19 51 44l25 201c1 4 1 7 1 11 0 43-35 77-77 77-42 0-77-34-77-77 0-4 0-7 1-11z"/>
<glyph glyph-name="refresh" unicode="&#51;" d="M136 133c-69 68-69 178 0 246 69 68 182 68 251 0 2-2 4-4 6-6l-60-58 179-13-1 187-59-58c-2 2-3 4-5 6-102 100-268 100-370 0-103-100-103-262 0-362 102-100 268-100 370 0l-60 58c-69-68-182-68-251 0z"/>
<glyph glyph-name="timeline" unicode="&#52;" d="M136 247l44-45 44 45 279 0c5 0 9 4 9 9 0 5-4 9-9 9l-279 0-44 45-44-45-117 0 0 133 307 0 44-44 44 44 89 0c5 0 9 4 9 10 0 5-4 9-9 9l-89 0-44 44-44-44-307 0 0 86c0 5-4 9-10 9-5 0-9-4-9-9l0-494c0-5 4-9 9-9 6 0 10 4 10 9l0 86 345 0 44-44 44 44 51 0c5 0 9 4 9 9 0 6-4 10-9 10l-51 0-44 44-44-44-345 0 0 133z"/>
<glyph glyph-name="reports" unicode="&#54;" d="M244 132l-189 0 0 49 202 0 10 39 12 11-224 0 0 49 238 0 0-35 73 73 0 170c0 13-11 24-25 24l-317 0c-13 0-24-11-24-24l0-464c0-13 11-24 24-24l317 0c14 0 25 11 25 24l0 96-135-36z m-189 248l238 0 0-49-238 0z m285-237c-9 7-18 15-27 23-8 9-16 18-23 28l-26-77z m-39 68c8-11 17-21 26-31 10-9 20-18 30-25l138 138-56 56z m202 115l0 0c0 0-1 1-1 1 0 0-2 2-6 7l-1 0c0 1-1 1-1 2-2 2-4 3-6 6-1 1-2 2-3 3-1 1-3 2-4 3l0 1c-5 4-7 6-7 6-1 1-1 1-2 1l0 1c-7 6-15 10-17 8l-7-8 56-56 7 8c2 2-1 9-8 17z"/>
<glyph glyph-name="reply" unicode="&#55;" d="M255 389l0 92-255-194 255-195 0 92c109 7 211-54 256-153 15 166-94 318-256 358z"/>
<glyph glyph-name="like" unicode="&#56;" d="M492 219c24 6 28 62 4 66-39 6-155 8-155 8 6 25 17 76 18 102 1 37-11 70-28 84-25 22-43-4-43-4 0 0 3-60 1-74-4-24-85-163-122-164l0-177 10 0c12 0 27-19 43-19l228 0c35 0 54 36 24 54 26 5 38 51 10 62 28 4 29 58 10 62z m-374 36l-90 0c-16 0-28-12-28-27l0-176c0-15 12-28 28-28l90 0c15 0 28 13 28 28l0 176c0 15-13 27-28 27z"/>
<glyph glyph-name="check" unicode="&#57;" d="M495 437c-23 23-59 23-82 0l-239-239-75 75c-10 10-25 17-41 17-32 0-58-26-58-58 0-16 7-31 17-41l116-116c10-11 25-17 41-17 16 0 31 6 41 17l280 280c23 23 23 59 0 82z"/>
<glyph glyph-name="logout" unicode="&#33;" d="M469 265l40 59c2 3 3 7 3 11 0 4-1 8-3 11l-40 59c-3 5-9 9-16 9-11 0-20-9-20-20 0-4 1-8 4-11l19-29-82 0c-11 0-20-8-20-19 0-11 9-20 20-20l82 0-19-28c-3-4-4-7-4-11 0-11 9-20 20-20 7 0 13 3 16 9z m-75 168l0 59c0 11-9 20-20 20l-354 0c-11 0-20-9-20-20l0-354c0-7 3-12 8-16 1-1 2-1 3-2l236-118c3-1 6-2 9-2 11 0 20 9 20 20l0 98 98 0c11 0 20 9 20 20l0 98-40 0 0-78-78 0 0 216c0 7-3 12-8 16-1 1-2 1-3 2l-162 81 251 0 0-40z"/>
<glyph glyph-name="clock" unicode="&#34;" d="M256 474c120 0 218-98 218-218 0-120-98-218-218-218-120 0-218 98-218 218 0 120 98 218 218 218m0 38c-141 0-256-115-256-256 0-141 115-256 256-256 141 0 256 115 256 256 0 141-115 256-256 256z m102-275l-102 0c-11 0-19 8-19 19l0 154c0 10 8 19 19 19 11 0 19-9 19-19l0-135 83 0c11 0 20-8 20-19 0-11-9-19-20-19z"/>
<glyph glyph-name="response" unicode="&#35;" d="M504 37c-25 21-47 46-65 73 35 42 55 96 55 156 0 136-110 246-246 246-136 0-246-110-246-246 0-136 110-247 246-247 16 0 32 2 48 5 43-16 90-24 141-24 19 0 38 1 56 4l0 0c9 1 17 9 17 19 0 5-2 10-6 14z"/>
<glyph glyph-name="search" unicode="&#36;" d="M340 342c0 94-76 170-170 170-94 0-170-76-170-170 0-94 76-170 170-170 94 0 170 76 170 170z m163-283l-157 157c-13-20-30-37-50-50l157-157c11-11 27-12 36-3l17 17c9 9 8 25-3 36z"/>
<glyph glyph-name="minus" unicode="&#37;" d="M427 341l-342 0c-47 0-85-38-85-85 0-47 38-85 85-85l342 0c47 0 85 38 85 85 0 47-38 85-85 85z"/>
<glyph glyph-name="xlexport" unicode="&#38;" d="M315 282l69 0 0-52-69 0 0-20 69 0 0-52-69 0 0-20 69 0 0-40-69 0 0-39 197 0 0 243-197 0z m89 0l69 0 0-52-69 0z m0-72l69 0 0-52-69 0z m0-72l69 0 0-40-69 0z m10 260l0-36 98 75-98 75 0-35c-62-16-104-74-98-138 17 38 56 61 98 59z m-414-339l276-59 0 512-276-59z m79 286l39 0 20-45 20 45 39 0-39-89 39-89-39 0-20 45-20-45-39 0 39 89z"/>
<glyph glyph-name="collapse" unicode="&#39;" d="M91 55l165 164 165-164-55-55-110 110-110-110z m330 402l-165-164-165 164 55 55 110-110 110 110z"/>
<glyph glyph-name="dashboard" unicode="&#40;" d="M226 442l0 0c-1 3-4 5-7 5-4 0-7-3-7-7l0 0 9-220 0 0c0-19 16-34 35-34 19 0 35 16 35 35 0 4-1 7-2 10z m-35-2c0 4 1 9 3 13-102-28-178-121-178-232 0-67 27-126 71-170l65 65c-27 27-43 64-43 105 0 59 35 111 86 134l-4 83c0 1-1 1-1 2z m65 21c-6 0-12 0-17-1 3-3 6-7 7-12l0 0 24-80c75-7 134-71 134-147 0-41-17-78-43-105l65-65c43 44 70 104 70 170 0 132-108 240-240 240z"/>
<glyph glyph-name="notification" unicode="&#41;" d="M479 128c-15 19-50 48-68 87-29 61 3 167-41 217-26 30-61 39-85 42 0 2 1 5 1 7 0 17-14 31-30 31-16 0-30-14-30-31 0-2 1-5 1-7-24-3-59-12-85-42-44-50-12-156-41-217-18-39-53-68-68-87-21-28 3-52 15-52 16 0 79 0 132 0 0-42 34-76 76-76 42 0 76 34 76 76 53 0 117 0 132 0 12 0 36 24 15 52z"/>
<glyph glyph-name="settings" unicode="&#42;" d="M509 395l-99-99-90 24-24 90 99 99c-48 10-100-3-137-41-46-45-55-113-30-168-35-31-176-157-213-206-26-33-13-55 5-74 19-18 41-31 74-5 49 37 175 178 206 213 56-25 123-16 169 30 37 37 50 89 40 137z m-439-353c-8-8-20-8-28 0-8 7-8 20 0 28 8 8 20 8 28 0 8-8 8-21 0-28z m6 317l86-86c9 8 17 15 24 21l-87 88-27 57-49 19-23-23 19-49z m233-156c-13-15-31-35-51-58 44-48 125-137 144-143 11-4 25-3 41 13 15 15 17 29 13 41-7 19-99 103-147 147z"/>
<glyph glyph-name="settings-line" unicode="&#43;" d="M363 499c1 0 3 0 4 0l-80-80-5-5 2-7 24-90 2-7 7-2 90-24 7-2 5 5 80 80c1-37-13-73-40-100-25-26-59-40-96-40-19 0-39 5-57 13l-9 4-6-7c-26-29-156-175-205-212-10-8-19-12-27-12-9 0-18 5-30 16-18 18-24 33-4 57 38 49 183 179 212 205l7 6-4 9c-24 51-13 113 27 153 26 26 60 40 96 40m0 13c-38 0-76-14-105-44-46-45-55-112-30-168-35-31-176-157-213-206-26-33-13-55 5-74 11-11 24-20 39-20 10 0 22 4 35 15 49 37 175 178 206 213 20-9 42-14 63-14 38 0 76 15 105 44 38 37 51 89 41 137l-99-99-90 24-24 90 99 99c-11 2-21 3-32 3z m-337-69l37-14 24-53 1-2 2-1 77-78c-1-2-3-3-5-5l-77 78-2 2-2 1-52 24-14 37 11 11m-3 15l-23-23 19-49 57-27 86-86c9 8 17 15 24 21l-87 88-27 57z m287-274c120-108 132-129 134-132 2-6 3-15-10-28-8-7-15-11-21-11-3 0-5 0-7 1-9 3-48 40-131 131 13 15 25 28 35 39m-1 19c-13-15-31-35-51-58 44-48 125-137 144-143 3-1 7-2 11-2 9 0 19 4 30 15 15 15 17 29 13 41-7 19-99 103-147 147z m-253-140c2 0 4-1 5-2 3-3 3-7 0-10-1-2-3-2-5-2-2 0-4 0-5 2-2 1-2 3-2 5 0 2 0 4 2 5 1 1 3 2 5 2m0 13c-5 0-10-2-14-6-8-8-8-21 0-28 4-4 9-6 14-6 5 0 10 2 14 6 8 7 8 20 0 28-4 4-9 6-14 6z"/>
<glyph glyph-name="notification-line" unicode="&#44;" d="M256 499c9 0 17-8 17-18 0-1 0-3-1-4l-3-14 14-2c23-2 54-11 77-37 22-25 22-66 23-110 1-37 2-75 16-105 14-29 37-53 53-71 7-7 13-13 17-18 5-7 7-14 5-20-3-7-8-11-10-11l-145 0 0-13c0-35-28-63-63-63-35 0-63 28-63 63l0 13-13 0-132-1c-2 1-7 5-10 12-2 6 0 13 5 20 4 5 10 11 17 18 16 18 39 42 53 71 14 30 15 68 16 105 0 44 1 85 23 110 23 26 54 35 77 37l14 2-3 14c-1 1-1 3-1 4 0 10 8 18 17 18m0 13c-16 0-30-14-30-31 0-2 1-5 1-7-24-3-59-12-85-42-44-50-12-156-41-217-18-39-53-68-68-87-21-28 3-52 15-52 16 0 79 0 132 0 0-42 34-76 76-76 42 0 76 34 76 76 53 0 117 0 132 0 12 0 36 24 15 52-15 19-50 48-68 87-29 61 3 167-41 217-26 30-61 39-85 42 0 2 1 5 1 7 0 17-14 31-30 31z"/>
<glyph glyph-name="dashboard-line" unicode="&#45;" d="M223 415l57-187c1-2 1-5 1-7 0-14-11-25-25-25-13 0-24 10-25 24l-8 195m-4 32c-4 0-7-3-7-7 0 0 0 0 0-1l0 0 9-220 0 0c1-18 16-33 35-33 20 0 35 15 35 35 0 3 0 7-1 10l-64 211 0 0c-1 3-4 5-7 5z m-38-9l3-76c-53-27-86-82-86-141 0-39 13-76 39-105l-51-50c-38 42-60 97-60 155 0 98 63 185 155 217m13 15c-102-28-178-121-178-232 0-66 27-126 70-170l65 65c-27 27-43 64-43 105 0 60 35 111 86 135l-3 83c0 0 0 0 0 1 0 4 1 9 3 13z m62-2c127 0 230-103 230-230 0-58-22-113-61-155l-50 50c26 29 39 66 39 105 0 80-58 146-136 157l-22 73m0 10c-6 0-12 0-17-1 3-3 6-7 7-12l0 0 24-80c75-7 134-70 134-147 0-41-16-78-43-105l65-65c43 44 70 104 70 170 0 132-107 240-240 240z"/>
<glyph glyph-name="edit" unicode="&#46;" d="M45 156c-3-3-5-7-7-10l-37-112c0-2-1-5-1-8 0-7 3-13 8-18 7-8 18-10 27-7l111 37c3 2 7 4 10 7l18 18-111 111z m444 222c31 31 31 80 0 111-31 31-80 31-111 0l-208-208-51-51-19-19 111-111z m-3-326l-262 0c-14 0-26-11-26-26 0-14 12-26 26-26l262 0c14 0 26 12 26 26 0 15-12 26-26 26z"/>
<glyph glyph-name="password" unicode="&#47;" d="M444 37c10 10 10 25 0 34l68 68-34 34-17-17-17 17-51-51-16 17 67 68-17 17-17-17-16 17-17-17-17 17-34-34-88 87c9 18 10 40 2 58 3 16 3 32 0 48l0 0c11 26 5 57-16 78-21 21-52 26-78 15l0 0c-38 8-79-3-108-32-29-30-40-71-33-109l0 0c-10-26-5-57 16-78 21-21 52-26 78-15l0 0c16-3 32-3 47 0 19-8 40-7 58 1l206-206c10-9 25-9 34 0m-288 288c-18-19-49-19-67 0-19 19-19 49 0 68 18 19 49 19 67 0 19-19 19-49 0-68"/>
<glyph glyph-name="snooze" unicode="&#58;" d="M505 419c9 10 9 27 0 36l-37 37c-10 10-26 10-36 0l-28-29 72-72z m-469-28l72 72-28 29c-10 10-26 10-36 0l-36-37c-10-9-10-26 0-36z m450-148c0 127-103 231-230 231-127 0-230-104-230-231 0-127 103-230 230-230 127 0 230 103 230 230z m-140-25l-128 0 0 179c0 14 11 25 25 25 14 0 26-11 26-25l0-128 77 0c14 0 25-12 25-26 0-14-11-25-25-25z"/>
<glyph glyph-name="star" unicode="&#59;" d="M510 317c-5 14-17 24-31 26l-130 19-59 118c-6 13-19 21-34 21-15 0-28-8-34-21l-59-118-130-19c-14-2-26-12-31-26-5-15-1-30 10-39l94-93-22-130c-3-14 3-28 15-37 12-9 28-10 40-3l117 62 117-62c12-7 28-6 40 3 12 9 18 23 15 37l-22 130 94 93c11 9 15 24 10 39z"/>
<glyph glyph-name="plus" unicode="&#60;" d="M427 341l-86 0 0 86c0 47-38 85-85 85-47 0-85-38-85-85l0-86-86 0c-47 0-85-38-85-85 0-47 38-85 85-85l86 0 0-86c0-47 38-85 85-85 47 0 85 38 85 85l0 86 86 0c47 0 85 38 85 85 0 47-38 85-85 85z"/>
<glyph glyph-name="exit" unicode="&#61;" d="M492 114l-141 142 141 142c26 26 26 68 0 94-26 27-68 27-94 0l-142-141-142 141c-26 27-68 27-94 0-26-26-26-68 0-94l141-142-141-142c-26-26-26-68 0-94 26-27 68-27 94 0l142 141 142-141c26-27 68-27 94 0 26 26 26 68 0 94z"/>
<glyph glyph-name="tripadvisor" unicode="&#62;" d="M145 233c0-11-10-20-21-20-12 0-21 9-21 20 0 12 9 21 21 21 11 0 21-9 21-21z m256 1c0-12-9-21-21-21-11 0-21 9-21 21 0 11 10 21 21 21 12 0 21-10 21-21z m111 125l-85 0c-44 29-103 47-171 47-68 0-131-18-175-47l-81 0c13-16 23-37 25-51-15-21-24-47-24-75 0-70 57-127 128-127 39 0 75 18 98 47 10-11 26-34 29-40 0 0 18 27 29 40 23-29 59-47 98-47 71 0 128 57 128 127 0 28-9 54-24 75 2 14 12 35 25 51z m-383-228c-57 0-103 45-103 102 0 57 46 103 103 103 56 0 102-46 102-103 0-57-46-102-102-102z m0 230c36 15 82 24 127 24 46 0 87-9 123-25-68-2-123-58-123-127 0 70-57 127-127 128z m254-230c-56 0-102 45-102 102 0 57 46 103 102 103 57 0 103-46 103-103 0-57-46-102-103-102z m0 165c-34 0-61-28-61-62 0-34 27-62 61-62 35 0 62 28 62 62 0 34-27 62-62 62z m0-105c-23 0-42 19-42 43 0 23 19 43 42 43 24 0 43-20 43-43 0-24-19-43-43-43z m-256 104c-34 0-62-27-62-62 0-34 28-61 62-61 34 0 62 27 62 61 0 35-28 62-62 62z m0-104c-24 0-43 19-43 42 0 24 19 43 43 43 24 0 43-19 43-43 0-23-19-42-43-42z"/>
<glyph glyph-name="twitter" unicode="&#63;" d="M253 332c-147 10-219 108-219 108 0 0-50-81 32-136-19-1-47 13-47 13 0 0-5-75 80-102-16-6-43-2-43-2 0 0 21-71 93-74-70-53-149-40-149-40 38-27 185-99 343 13 128 89 114 244 118 247 39 12 52 50 51 52 0 0-28-16-53-12 31 14 40 54 37 57-10-11-48-30-65-28-93 83-203-6-178-96z"/>
<glyph glyph-name="yelp" unicode="&#64;" d="M444 152l-121 39c0 0-11 3-19-5-9-9-1-24-1-24l64-107c0 0 10-15 20-15 9 0 18 8 18 8l51 73c0 0 5 9 5 17 0 11-17 14-17 14z m-123 81l120 35c0 0 16 7 19 15 2 9-3 20-3 20l-57 68c0 0-5 8-16 9-11 1-18-13-18-13l-68-107c0 0-6-10 0-20 6-10 23-7 23-7z m-103 56c0 0 10-10 23-7 14 3 16 24 16 24l-1 171c0 0-2 21-11 26-15 9-19 5-24 4l-99-37c0 0-10-3-15-11-7-12 7-29 7-29z m-2-76c1 13-15 21-15 21l-107 54c0 0-16 6-24 2-6-4-11-10-12-16l-7-85c0 0-1-15 3-22 6-10 24-3 24-3l125 28c4 3 13 3 13 21z m32-47c-11 6-24-6-24-6l-84-92c0 0-10-14-8-23 3-8 7-12 13-14l84-27c0 0 10-2 18 0 11 3 9 20 9 20l2 125c0 0-1 12-10 17z"/>
<glyph glyph-name="facebook" unicode="&#91;" d="M202 323l-80 0 0-91 80 0 0-232 92 0 0 232 78 0 13 91-89 0 0 70c0 21 14 30 27 32l67 0 0 83c0 0-75 8-106 1-30-8-80-34-83-115z"/>
<glyph glyph-name="filter" unicode="&#93;" d="M512 480c0 18-14 32-32 32l-448 0c-18 0-32-14-32-32 0-9 4-17 9-23l183-182 0-211c0-13 7-23 18-29l64-32c4-2 9-3 14-3 18 0 32 14 32 32l0 243 183 182c5 6 9 14 9 23z"/>
<glyph glyph-name="backarrow-light" unicode="&#94;" d="M192 256l192 201c6 6 9 14 9 23 0 18-13 32-30 32-9 0-16-4-22-9l-213-224c-6-6-9-14-9-23 0-9 3-17 9-23l213-224c6-5 13-9 22-9 17 0 30 14 30 32 0 9-3 17-9 23z"/>
<glyph glyph-name="forwardarrow-light" unicode="&#95;" d="M320 256l-192-201c-6-6-9-14-9-23 0-18 13-32 30-32 9 0 16 4 22 9l213 224c6 6 9 14 9 23 0 9-3 17-9 23l-213 224c-6 5-13 9-22 9-17 0-30-14-30-32 0-9 3-17 9-23z"/>
<glyph glyph-name="tacircle" unicode="&#96;" d="M192 266c-12 0-22-9-22-21 0-12 10-22 22-22 11 0 21 10 21 22 0 12-10 21-21 21z m-2-32c-6 0-10 5-10 11 0 5 4 10 10 10 6 0 10-5 10-10 0-6-4-11-10-11z m128 74c-19 8-39 13-62 13-23 0-45-5-64-13 36 0 64-28 64-63 0 34 27 62 62 63z m-126-12c-28 0-51-23-51-51 0-29 23-52 51-52 29 0 52 23 52 52 0 28-23 51-52 51z m0-82c-18 0-31 14-31 31 0 17 13 31 31 31 17 0 30-14 30-31 0-17-13-31-30-31z m128 52c-12 0-22-9-22-21 0-12 10-22 22-22 12 0 21 10 21 22 0 12-9 21-21 21z m-2-32c-6 0-10 5-10 11 0 6 4 10 10 10 6 0 11-4 11-10 0-6-5-11-11-11z m2 62c-29 0-52-23-52-51 0-29 23-52 52-52 28 0 51 23 51 52 0 28-23 51-51 51z m0-82c-17 0-31 14-31 31 0 17 14 31 31 31 17 0 31-14 31-31 0-17-14-31-31-31z m-64 298c-141 0-256-115-256-256 0-141 115-256 256-256 141 0 256 115 256 256 0 141-115 256-256 256z m127-267c0-36-28-64-63-64-20 0-38 9-50 23-5-6-14-20-14-20-2 4-9 15-14 20-12-14-30-23-50-23-35 0-63 28-63 64 0 14 4 26 12 37-1 7-6 18-13 25l41 0c21 15 53 24 87 24 34 0 64-9 85-24l43 0c-7-7-12-18-13-25 8-11 12-23 12-37z"/>
<glyph glyph-name="fbcircle" unicode="&#123;" d="M256 512c-141 0-256-115-256-256 0-141 115-256 256-256 141 0 256 115 256 256 0 141-115 256-256 256z m67-172l-33 0c-7 0-14-5-14-16l0-35 44 0-6-45-39 0 0-116-46 0 0 116-40 0 0 45 40 0 0 36c1 41 26 53 41 57 15 4 53 0 53 0l0-42z"/>
<glyph glyph-name="yelpcircle" unicode="&#124;" d="M256 512c-141 0-256-115-256-256 0-141 115-256 256-256 141 0 256 115 256 256 0 141-115 256-256 256z m-75-153c2 4 7 5 7 5l50 19c3 0 5 3 12-2 5-3 6-13 6-13l1-87c0 0-1-10-9-12-6-2-11 4-11 4l-53 71c0 0-7 9-3 15z m-27-148c-2 3-2 11-2 11l4 43c0 3 3 6 6 8 4 2 12-1 12-1l54-27c0 0 8-4 8-11 0-9-5-9-7-11l-63-14c0 0-9-3-12 2z m97-82c-3-2-9-1-9-1l-42 14c-3 1-5 3-7 7-1 5 4 12 4 12l43 47c0 0 6 5 12 3 5-3 5-9 5-9l-1-63c0 0 1-9-5-10z m26 129l35 54c0 0 3 7 9 7 5-1 8-5 8-5l29-34c0 0 2-6 1-10-1-5-9-8-9-8l-61-18c0 0-9-1-12 4-3 5 0 10 0 10z m80-71l-26-36c0 0-4-4-9-4-5 0-10 7-10 7l-32 54c0 0-4 8 0 13 4 4 10 2 10 2l61-19c0 0 9-2 9-8 0-4-3-9-3-9z"/>
<glyph glyph-name="twittercircle" unicode="&#125;" d="M256 512c-141 0-256-115-256-256 0-141 115-256 256-256 141 0 256 115 256 256 0 141-115 256-256 256z m102-204c-1-2 5-79-58-124-80-56-153-20-172-7 0 0 40-6 75 20-36 2-47 38-47 38 0 0 14-3 21 0-42 14-39 51-39 51 0 0 14-7 23-6-41 28-16 68-16 68 0 0 36-49 109-54-12 45 43 89 90 48 8-1 27 9 32 14 2-2-3-21-18-28 12-2 26 6 26 6 1-1-6-20-26-26z"/>
<glyph glyph-name="qrcode" unicode="&#84;" d="M129 332l-45 0 0 96 96 0 0-45c9 5 18 9 28 12l0 60-151 0 0-151 60 0c3 10 7 19 12 28z m51-241l-96 0 0 96 45 0c-5 9-9 18-12 27l-60 0 0-151 151 0 0 61c-10 3-19 7-28 12z m145 337l96 0 0-96-45 0c5-9 9-18 13-28l60 0 0 151-151 0 0-60c9-3 19-7 27-12z m-223-319l60 0 0 39c-7 6-14 13-20 21l-40 0z m40 241c6 7 13 14 20 20l0 40-60 0 0-60 40 0z m201 60l0-40c8-6 15-13 21-20l39 0 0 60-60 0z m106-315l-97 97c14 19 21 42 21 67 0 67-54 121-120 121-67 0-121-54-121-121 0-66 54-120 121-120 25 0 48 7 67 21l97-96c8-9 23-9 32 0 8 8 8 23 0 31z m-196 89c-42 0-76 34-76 75 0 42 34 76 76 76 41 0 75-34 75-76 0-41-34-75-75-75z m-15 256l30 0 0-30-30 0z m90-316l-30 0 0-30-30 0 0 30-30 0 0-30 30 0 0-31 90 0 0 31-30 0z m121 135l0 30-31 0 0-30-15 0 0-60 15 0 0-30 31 0 0 30-16 0 0 60z m-362-30l26 0c-2 10-3 20-3 30 0 5 0 10 0 15l-53 0 0-30 30 0 0-15z m374 263c17 0 31-14 31-31l0-410c0-17-14-31-31-31l-410 0c-17 0-31 14-31 31l0 410c0 17 14 31 31 31l410 0m0 20l-410 0c-28 0-51-23-51-51l0-410c0-28 23-51 51-51l410 0c28 0 51 23 51 51l0 410c0 28-23 51-51 51z"/>
<glyph glyph-name="x-square" unicode="&#53;" d="M512 435l-77 77-179-179-179 179-77-77 179-179-179-179 77-77 179 179 179-179 77 77-179 179z"/>
<glyph glyph-name="circle-check" unicode="&#126;" d="M256 512c-141 0-256-115-256-256 0-141 115-256 256-256 141 0 256 115 256 256 0 141-115 256-256 256z m143-197l-168-168c-6-6-15-10-24-10-10 0-19 4-25 10l-69 70c-7 6-11 15-11 25 0 19 16 34 35 34 10 0 18-4 25-10l45-45 143 144c14 13 36 13 49 0 14-14 14-36 0-50z"/>
<glyph glyph-name="circle-notcheck" unicode="&#92;" d="M256 0c-141 0-256 115-256 256 0 141 115 256 256 256 141 0 256-115 256-256 0-141-115-256-256-256z m0 480c-124 0-224-100-224-224 0-123 100-224 224-224 124 0 224 101 224 224 0 124-100 224-224 224z m-46-351c-13 0-25 5-35 14l-65 65c-9 9-14 21-14 34 0 27 22 49 49 49 13 0 25-5 34-14l31-31 123 123c18 19 50 19 69 0 9-9 14-21 14-34 0-13-5-25-14-35l-158-157c-9-9-21-14-34-14z m-65 130c-10 0-17-7-17-17 0-4 2-8 5-11l65-66c6-6 17-6 24 0l157 158c3 3 5 7 5 12 0 4-2 8-5 12-6 6-17 6-23 0l-146-146-54 53c-3 3-7 5-11 5z"/>
<glyph glyph-name="bezz" unicode="&#57344;" d="M431 478c-1 14-15 26-35 32-26 6-65 1-91-37-6-7-10-14-14-22-6 0-12-1-18-2-75-20-126-97-155-158-34-70-51-142-54-171-4-48 2-81 20-101 11-12 26-18 44-19 1 0 1 0 2 0 12 0 45 3 79 38 4 5 9 10 13 16 79-27 148 14 176 70 15 31 18 65 10 96-9 32-30 61-62 83 36 30 37 69 25 96-10 23-33 44-60 50 3 5 6 9 9 14 20 30 50 34 72 29 7-2 12-5 16-8-2 1-4 1-6 1-5-1-8-6-7-11 2-10 11-15 18-15 5 0 10 2 14 6 3 4 5 9 4 13z m-164-169c1-21 1-40-1-60-3-29-7-54-12-76-17 32-24 94-16 151 12 34 26 65 37 87-10-36-9-69-8-102z m-133-26c28 58 75 130 144 148 1 0 3 1 4 1-1-3-3-7-4-10-10-21-27-57-41-97l0 0c0 0 0 0 0 0-4-11-8-23-11-34-2-5-3-11-5-17-3-3-45-51-113-53 8 20 16 42 26 62z m-51-164c1 19 10 57 25 100 60 2 101 40 111 51-12-38-30-84-52-128l0 1c0-1-27-42-85-66-1 12-1 26 1 42z m-1-44c44 18 70 45 81 59-19-37-42-72-66-102-8 9-13 24-15 43z m47-57c-13 1-23 5-31 13 37 44 69 102 93 158-5-23-15-83-2-144-28-26-55-27-60-27z m62 28c-16 76 3 150 4 151l-1 0c15 34 26 66 34 94 2 8 5 16 7 24-6-55 1-115 18-145-16-65-40-103-62-124z m190 87c-8-16-19-31-34-43-12-2-25-4-39-5-23-3-46-3-67-2 6 11 11 23 16 36 3 0 6 0 10 0 38 0 78 5 115 15 0 0 0-1-1-1z m13 44c-25-9-54-16-86-19-13-1-26-2-39-2 3 12 5 24 8 37 38 1 78 6 114 17 3-11 3-23 3-33z m-40 215c14-30 3-61-28-81l-12-8 12-8c24-15 40-32 51-50-21-7-44-11-69-13-8-1-17-2-25-2 0 5 1 11 2 17 2 21 1 42 0 63-1 41-3 80 17 122 24-3 43-21 52-40z"/>
<glyph glyph-name="elongarrow-downnotfilled" unicode="&#57345;" d="M445 413l-189-297-189 297 378 0m35 51l-448 0c-18 0-32-14-32-32 0-6 2-12 5-17l224-352c6-9 16-15 27-15 11 0 21 6 27 15l224 352c3 5 5 11 5 17 0 18-14 32-32 32z"/>
<glyph glyph-name="elongarrow-downfilled" unicode="&#57346;" d="M283 63l224 352c3 5 5 11 5 17 0 18-14 32-32 32l-448 0c-18 0-32-14-32-32 0-6 2-12 5-17l224-352c6-9 16-15 27-15 11 0 21 6 27 15z"/>
<glyph glyph-name="genericprofile" unicode="&#57347;" d="M256 512c-141 0-256-115-256-256 0-71 28-137 80-186 48-45 110-70 176-70 66 0 128 25 176 70 52 49 80 115 80 186 0 141-115 256-256 256z m163-428c0-1 0-1-1-1-27 18-82 40-103 53 0 0-1 12 0 13 17 15 31 50 37 65 5 13 12 12 12 31 0 29-7 20-7 31 0 70-22 139-101 139-79 0-101-69-101-139 0-11-7-2-7-31 0-19 7-18 12-31 6-15 20-50 37-65 1-1 0-13 0-13-21-13-76-35-103-53-1 0-1 0-1 1-48 45-74 106-74 172 0 131 106 237 237 237 131 0 237-106 237-237 0-66-26-127-74-172z"/>
<glyph glyph-name="sqrounded" unicode="&#57348;" d="M512 51c0-28-23-51-51-51l-410 0c-28 0-51 23-51 51l0 410c0 28 23 51 51 51l410 0c28 0 51-23 51-51z"/>
<glyph glyph-name="information" unicode="&#57349;" d="M293 366c0 20-17 36-37 36-20 0-37-16-37-36 0-20 17-37 37-37 20 0 37 17 37 37z m-37 146c-141 0-256-115-256-256 0-70 28-134 74-180 0 0 0 0 0 0 0 0 1-1 1-1 10-10 25-10 34 0 10 10 10 25 0 34-37 38-60 90-60 147 0 114 93 207 207 207 114 0 207-92 207-207 0-98-68-180-159-202-6-1-12 0-16 4-5 4-8 9-8 15l0 183c0 13-11 24-24 24l-24 0c-14 0-25-11-25-24 0-13 11-24 25-24l0-208c0-13 11-24 24-24 0 0 1 0 1 0 141 1 255 115 255 256 0 141-115 256-256 256z"/>
<glyph glyph-name="presentation" unicode="&#113;" d="M418 177c-65 59-83 118-162 118-79 0-97-59-162-118-43-38-94-37-94-59 0-20 39-39 79-39 22 0 42 7 59 20 16-13 37-20 59-20 22 0 43 7 59 20 16-13 37-20 59-20 22 0 43 7 59 20 17-13 37-20 59-20 40 0 79 19 79 39 0 22-51 21-94 59z m-206 46c-12-12-27-20-42-24 5 15 13 29 25 41 12 12 26 20 41 25-4-15-12-30-24-42z m44-52c-8 14-12 30-12 47 0 17 4 33 12 47 8-14 12-30 12-47 0-17-4-33-12-47z m44 52c-12 12-20 27-24 42 15-5 29-13 41-25 12-12 20-26 25-41-15 4-30 12-42 24z m-24 112c0-11-9-20-20-20-11 0-20 9-20 20 0 11 9 19 20 19 11 0 20-8 20-19z m98-260c-17-10-37-16-59-16-21 0-42 6-59 16-17-10-38-16-59-16-22 0-42 6-59 16-18-10-38-16-59-16-21 0-40 5-57 14l28-55c5-10 18-18 29-18l354 0c11 0 24 8 29 18l28 55c-17-9-36-14-57-14-21 0-41 6-59 16z m-142 320c0 0-27 17 3 58 30 42-6 55-11 59 5-4 28-17-2-59-30-41 10-58 10-58z m54-20c0 0-26 17 4 59 29 41-7 55-11 58 4-3 27-17-3-58-29-42 10-59 10-59z"/>
<glyph glyph-name="categories-1" unicode="&#57350;" d="M315 276l0-79-197 0 0 118 79 0 0 197-197 0 0-197 79 0 0-315 39 0 0 157 197 0 0-78 197 0 0 197z"/>
<glyph glyph-name="calloutright" unicode="&#57352;" d="M248 506c132 0 240-108 240-240 0-56-19-110-54-152l-3-4 2-4c19-27 41-52 66-74 3-2 5-6 5-9 0-7-5-12-12-13l-6 0 0-1c-16-2-32-3-49-3-49 0-96 8-139 24l-2 1-1-1c-16-3-31-4-47-4-132 0-240 107-240 240 0 132 108 240 240 240m0 6c-136 0-246-110-246-246 0-136 110-247 246-247 16 0 32 2 48 5 43-16 90-24 141-24 19 0 38 1 56 4l0 0c9 1 17 9 17 19 0 5-2 10-6 14-25 21-47 46-65 73 35 42 55 96 55 156 0 136-110 246-246 246z"/>
<glyph glyph-name="sad" unicode="&#57353;" d="M389 185c-38-27-84-43-133-43-49 0-95 16-133 43-57-41-95-109-95-185l456 0c0 76-38 144-95 185z m-133 327c-79 0-142-64-142-142 0-79 63-142 142-142 79 0 142 63 142 142 0 78-63 142-142 142z m-89-94c0 15 13 28 29 28 15 0 28-13 28-28 0-16-13-29-28-29-16 0-29 13-29 29z m138-128c-10 19-28 30-49 30-21 0-41-12-50-31l-17 8c12 26 38 43 67 43 28 0 53-16 66-41z m11 99c-15 0-28 13-28 29 0 15 13 28 28 28 16 0 29-13 29-28 0-16-13-29-29-29z"/>
<glyph glyph-name="neutral" unicode="&#57354;" d="M389 185c-38-27-84-43-133-43-49 0-95 16-133 43-57-41-95-109-95-185l456 0c0 76-38 144-95 185z m-133 327c-79 0-142-64-142-142 0-79 63-142 142-142 79 0 142 63 142 142 0 78-63 142-142 142z m60-66c16 0 29-13 29-28 0-16-13-29-29-29-15 0-28 13-28 29 0 15 13 28 28 28z m-120 0c15 0 28-13 28-28 0-16-13-29-28-29-16 0-29 13-29 29 0 15 13 28 29 28z m147-140l-171 0 0 28 171 0z"/>
<glyph glyph-name="happy" unicode="&#57355;" d="M389 185c-38-27-84-43-133-43-49 0-95 16-133 43-57-41-95-109-95-185l456 0c0 76-38 144-95 185z m-133 327c-79 0-142-64-142-142 0-79 63-142 142-142 79 0 142 63 142 142 0 78-63 142-142 142z m60-66c16 0 29-13 29-28 0-16-13-29-29-29-15 0-28 13-28 29 0 15 13 28 28 28z m-120 0c15 0 28-13 28-28 0-16-13-29-28-29-16 0-29 13-29 29 0 15 13 28 29 28z m60-165c-31 0-78 20-78 78l156 0c0-58-48-78-78-78z"/>
<glyph glyph-name="private" unicode="&#57356;" d="M256 233c-8 0-15-6-15-15 0-5 3-10 8-12l0-33 14 0 0 33c5 2 8 7 8 12 0 9-7 15-15 15z m0 106c-12 0-22-11-22-23l0-38 44 0 0 38c0 12-10 23-22 23z m110 173l-220 0c-27 0-48-22-48-49l0-414c0-27 21-49 48-49l220 0c27 0 48 22 48 49l0 414c0 27-21 49-48 49z m-49-339c0-8-8-15-16-15l-90 0c-8 0-16 7-16 15l0 90c0 9 8 15 16 15l8 0 0 38c0 21 16 38 37 38 21 0 37-17 37-38l0-38 8 0c8 0 16-6 16-15z"/>
<glyph glyph-name="details" unicode="&#57357;" d="M49 49c0 0 0 0 0 0l0 414c0 0 0 0 0 0l219 0c0 0 1 0 1 0l0-162c15 8 31 15 48 18l0 144c0 27-22 49-49 49l-219 0c-27 0-49-22-49-49l0-414c0-27 22-49 49-49l219 0c13 0 24 5 33 13-24 7-44 20-62 36z m458-18l-78 78c10 16 17 35 17 55 0 54-44 97-98 97-54 0-97-43-97-97 0-54 43-98 97-98 20 0 39 7 55 17l78-78c7-7 19-7 26 0 7 7 7 19 0 26z m-159 72c-33 0-61 27-61 61 0 33 28 61 61 61 34 0 61-28 61-61 0-34-27-61-61-61z"/>
<glyph glyph-name="activity" unicode="&#57358;" d="M438 488c0 13-11 24-25 24l-317 0c-13 0-24-11-24-24l0-464c0-13 11-24 24-24l317 0c14 0 25 11 25 24l0 464z m-290-356c-13-1-25 8-27 21-2 14 7 26 21 28 13 2 25-8 27-21 2-14-7-26-21-28z m0 100c-13-2-25 7-27 20-2 14 7 26 21 28 13 2 25-8 27-21 2-13-7-26-21-27z m0 99c-13-2-25 8-27 21-2 14 7 26 21 28 13 1 25-8 27-21 2-14-7-26-21-28z m216-200l-172 0 0 48 172 0z m0 99l-172 0 0 52 172 0z m0 103l-172 0 0 48 172 0z"/>
<glyph glyph-name="calloutleft" unicode="&#57351;" d="M264 506c132 0 240-108 240-240 0-133-108-240-240-240-16 0-31 1-47 4l-1 1-2-1c-43-16-90-24-139-24-17 0-33 1-49 3l0 1-6 0c-7 1-12 6-12 13 0 3 2 7 5 9 25 22 47 47 66 74l2 4-3 4c-35 42-54 96-54 152 0 132 108 240 240 240m0 6c-136 0-246-110-246-246 0-60 20-114 55-156-18-27-40-52-65-73-4-4-6-9-6-14 0-10 8-18 17-19l0 0c18-3 37-4 56-4 51 0 98 8 141 24 16-3 32-5 48-5 136 0 246 111 246 247 0 136-110 246-246 246z"/>
<glyph glyph-name="foodo" unicode="&#57363;" d="M138 0c-24 0-43 20-43 44l0 160c-35 17-56 52-56 91l0 193c0 13 11 24 24 24 13 0 24-11 24-24l0-111 29 0 0 111c0 13 11 24 24 24 14 0 25-11 25-24l0-111 28 0 0 111c0 13 11 24 24 24 14 0 25-11 25-24l0-193c0-41-24-77-60-93l0-158c0-24-20-44-44-44z m-75 502c-8 0-14-6-14-14l0-193c0-36 20-69 53-83l3-2 0-166c0-19 15-34 33-34 19 0 34 15 34 34l0 165 3 1c34 14 57 47 57 85l0 193c0 8-7 14-15 14-7 0-14-6-14-14l0-121-49 0 0 121c0 8-6 14-14 14-8 0-14-6-14-14l0-121-49 0 0 121c0 8-6 14-14 14z m367-502c-24 0-44 20-44 44l0 154c-23 10-38 33-38 58l0 193c0 35 28 63 62 63 35 0 63-28 63-63l0-405c0-24-19-44-43-44z m-20 502c-29 0-52-24-52-53l0-193c0-22 14-42 35-50l3-1 0-161c0-19 15-34 34-34 18 0 33 15 33 34l0 405c0 29-23 53-53 53z"/>
<glyph glyph-name="cleanlinesso" unicode="&#57365;" d="M222 411l-212 0 0 30c0 17 14 31 31 31l56 0 0 2c1 10 7 19 16 23l2 0 177 13c1 0 1 0 2 0 9 0 17-8 17-18 0-9-7-17-17-18l-83-9c7-6 11-14 11-24z m-201 10l191 0 0 20c0 12-10 21-21 21l-8 0 0 10 111 13c4 0 7 3 7 7 0 5-3 8-7 8l-1 0-177-13c-5-2-8-8-8-13l0-12-67 0c-11 0-20-9-20-21z m464-31c7 0 13-5 13-12l0-13c0-7-6-13-13-13l-12 0c0-7-6-13-13-13l-13 0c-7 0-12 6-12 13l-8 0-171-177c-10-9-24-14-39-14l0-115c0-14-12-25-26-25l-152 0c-14 0-25 11-25 25l0 319c0 14 11 25 25 25l152 0c14 0 26-11 26-25l0-72 188 96c1 1 3 1 4 1l76 0m0 14l-76 0c-3 0-6 0-9-2l-1 0-1 0-167-86 0 49c0 22-18 39-40 39l-152 0c-21 0-39-17-39-39l0-319c0-21 18-39 39-39l152 0c22 0 40 18 40 39l0 102c12 3 24 8 34 16l1 1 0 0 162 169c5-5 12-8 19-8l13 0c10 0 18 5 23 12l2 0c15 0 27 12 27 27l0 13c0 14-12 26-27 26z m-25-154c9 0 29-32 29-48 0-15-13-28-29-28-16 0-28 13-28 28 0 16 19 48 28 48m0 14c-21 0-42-43-42-62 0-23 19-42 42-42 23 0 42 19 42 42 0 19-21 62-42 62z m-15-76c-3 0-5 1-6 4-2 4-2 7 0 15 1-8 8-8 9-13 1-2-1-5-3-6z m-391 138l-13-210c0-3-3-6-6-6-4 0-7 3-7 6l0 211c0 7 6 12 13 12 7 0 13-5 13-12 0-1 0-1 0-1z m-13 26c-7 0-13 6-13 13 0 7 6 13 13 13 7 0 13-6 13-13 0-7-6-13-13-13z"/>
<glyph glyph-name="hamburger" unicode="&#57360;" d="M32 384l448 0c18 0 32 14 32 32 0 18-14 32-32 32l-448 0c-18 0-32-14-32-32 0-18 14-32 32-32z m448-96l-448 0c-18 0-32-14-32-32 0-18 14-32 32-32l448 0c18 0 32 14 32 32 0 18-14 32-32 32z m0-160l-448 0c-18 0-32-14-32-32 0-18 14-32 32-32l448 0c18 0 32 14 32 32 0 18-14 32-32 32z"/>
<glyph glyph-name="waittimeo" unicode="&#57364;" d="M463 420l-40 0c-1 1-1 1-2 1l0 50c0 5-4 9-9 9-5 0-9-4-9-9l0-50c-3-2-5-6-5-10 0-7 7-14 14-14 4 0 8 2 11 5l40 0c5 0 9 4 9 9 0 5-4 9-9 9z m-402 78c27 0 50-23 50-51 0-27-23-50-50-50-28 0-51 23-51 50 0 28 23 51 51 51m0 10c-34 0-61-27-61-61 0-33 27-60 61-60 33 0 60 27 60 60 0 34-27 61-60 61z m0-155c21 0 40-13 47-33l31-83 0 0 5-13c1-3 2-5 2-8l2-8 131 0c11 0 21-7 25-18l2-7 0 0 46-138c1-3 2-5 2-8 0-14-12-26-27-26-11 0-21 7-25 18l-2 6-38 114-2 7-163 0c-21 0-40 13-47 32l-3 7-34 90c-2 6-3 11-3 17 0 28 23 51 51 51m0 10c-34 0-61-27-61-61 0-7 1-14 4-21l36-96 0 0c9-23 31-39 57-39l156 0 40-120 0 0c5-15 18-25 34-25 20 0 37 16 37 36 0 4-1 8-2 11l-49 145 0 0c-4 15-18 25-34 25l-123 0c0 3-1 6-2 9l0 0-37 97c-8 23-30 39-56 39z m97-252c7 0 14-6 14-14l0-72c0-8-7-14-14-14l-134 0c-8 0-14 6-14 14l0 72c0 8 6 14 14 14l134 0m0 10l-134 0c-13 0-24-10-24-24l0-72c0-13 11-24 24-24l134 0c13 0 24 11 24 24l0 72c0 14-11 24-24 24z m256 192c-55 0-101 45-101 100 0 55 46 100 101 100 55 0 101-45 101-100 0-55-46-100-101-100z m0 190c-50 0-90-40-90-90 0-50 40-90 90-90 50 0 90 40 90 90 0 50-40 90-90 90z"/>
<glyph glyph-name="circlefilled" unicode="&#57366;" d="M512 256c0-141-115-256-256-256-141 0-256 115-256 256 0 141 115 256 256 256 141 0 256-115 256-256z"/>
<glyph glyph-name="charts" unicode="&#57367;" d="M456 17l0 327-56 0 0-327-56 0 0 159-56 0 0-159-56 0 0 271-56 0 0-271-56 0 0 215-56 0 0-215-47 0 0 495-17 0 0-512 512 0 0 17z m-364 271c16 0 28 13 28 28 0 2 0 3 0 5l64 32c5-6 12-9 20-9 5 0 9 1 13 3l74-74c-2-4-3-8-3-13 0-15 13-28 28-28 16 0 28 13 28 28 0 7-2 13-6 18l82 123c3 0 5-1 8-1 16 0 28 13 28 28 0 16-12 28-28 28-15 0-28-12-28-28 0-7 2-13 6-17l-82-124c-3 1-5 1-8 1-5 0-9-1-13-3l-74 74c2 4 3 8 3 13 0 16-12 28-28 28-15 0-28-12-28-28 0-1 0-3 1-4l-65-32c-5 5-12 8-20 8-15 0-28-12-28-28 0-15 13-28 28-28z"/>
<glyph glyph-name="options" unicode="&#57368;" d="M102 256c0-28-23-51-51-51-28 0-51 23-51 51 0 28 23 51 51 51 28 0 51-23 51-51z m205 0c0-28-23-51-51-51-28 0-51 23-51 51 0 28 23 51 51 51 28 0 51-23 51-51z m205 0c0-28-23-51-51-51-28 0-51 23-51 51 0 28 23 51 51 51 28 0 51-23 51-51z"/>
<glyph glyph-name="optionso" unicode="&#57369;" d="M51 287c17 0 31-14 31-31 0-17-14-31-31-31-17 0-31 14-31 31 0 17 14 31 31 31m0 20c-28 0-51-23-51-51 0-28 23-51 51-51 28 0 51 23 51 51 0 28-23 51-51 51z m205-20c17 0 31-14 31-31 0-17-14-31-31-31-17 0-31 14-31 31 0 17 14 31 31 31m0 20c-28 0-51-23-51-51 0-28 23-51 51-51 28 0 51 23 51 51 0 28-23 51-51 51z m205-20c17 0 31-14 31-31 0-17-14-31-31-31-17 0-31 14-31 31 0 17 14 31 31 31m0 20c-28 0-51-23-51-51 0-28 23-51 51-51 28 0 51 23 51 51 0 28-23 51-51 51z"/>
<glyph glyph-name="logout2" unicode="&#57359;" d="M158 155l157 120-157 120 0-57c-100-25-166-118-157-221 27 62 90 99 157 95z m-35 357l0-79 59 0 0 20 271 0 0-394-271 0 0 59-59 0 0-118 389 0 0 512z"/>
<glyph glyph-name="breakfast" unicode="&#57370;" d="M228 355c0-14-11-26-25-26-15 0-26 12-26 26 0 14 11 25 26 25 14 0 25-11 25-25z m-64-47c0-7-6-12-13-12-7 0-13 5-13 12 0 7 6 13 13 13 7 0 13-6 13-13z m64-18c0-7-6-13-13-13-7 0-12 6-12 13 0 7 5 13 12 13 7 0 13-6 13-13z m283 111c-27 185-387 98-483 30-41-29-35-89 4-91 0 0 0 0 0 0l9-268c0-15 11-28 26-28l199-42c3-1 6-2 10-2 3 0 7 1 10 2l199 95c9 4 15 14 15 25 0 1 0 2 0 3l-12 243c13 0 27 9 23 33z m-251-82l1-27 14-263 0-1 0 0c0 0 1-1 1-1l-3 1-2 1-199 42-3 1-2 0 0 0 0 1-9 268-1 27-25 0c0 0-1 4-1 4 0 3-1 20 16 32 26 18 50 20 88 18 55-3 98-19 125-49 21-24 26-48 26-53z"/>
<glyph glyph-name="facilities" unicode="&#57371;" d="M498 326l-45 36 0 111c0 10-9 19-20 19l-39 0c-11 0-20-9-20-19l0-46-93 76c-7 6-16 9-25 9-9 0-18-3-25-9l-217-177c-8-7-14-18-14-31 0-21 18-39 39-39 10 0 19 3 25 9l192 157 192-157c7-6 15-9 25-9 21 0 39 18 39 39 0 13-6 24-14 31z m-98-80l-118 103c0 0 0 0-1 1-6 5-15 8-25 8-9 0-18-3-24-8-1-1-1-1-1-1l-119-103c-8-7-14-17-14-29l0-178c0-1 1-3 1-4 32 30 68 63 81 74-16 34-10 76 18 104 23 23 55 31 84 24l-60-60 14-56 56-14 60 60c7-29-1-61-24-84-28-28-70-34-104-18-9-11-33-38-59-65l209 0c10 0 18 3 25 9 9 7 15 18 15 30l0 178c0 11-6 22-14 29z"/>
<glyph glyph-name="frontdesk" unicode="&#57372;" d="M61 293c0-54 43-98 97-98 54 0 98 44 98 98l0 10c9 11 14 24 14 39 0 15-5 28-14 39l0 10c0 54-44 98-98 98-54 0-97-44-97-98l0-10c-9-11-14-24-14-39 0-15 5-28 14-39z m135-14c0-20-17-37-38-37-20 0-37 17-37 37z m70-65c-21-39-61-65-108-65-46 0-87 26-107 65-31-29-51-70-51-116l0-75 317 0 0 75c0 46-20 87-51 116z m-108-174c-9 0-16 7-16 16 0 8 7 16 16 16 9 0 16-8 16-16 0-9-7-16-16-16z m0 64c-9 0-16 7-16 16 0 8 7 16 16 16 9 0 16-8 16-16 0-9-7-16-16-16z m237-61l117 0 0-20-117 0z m68 69l0 11c0 5-4 9-9 9-6 0-10-4-10-9l0-11c-28-5-49-29-49-58l117 0c0 29-21 53-49 58z"/>
<glyph glyph-name="location" unicode="&#57373;" d="M256 159c60 47 98 120 98 202 0 54-44 98-98 98-54 0-98-44-98-98 0-82 38-155 98-202z m-39 202c0 21 17 39 39 39 22 0 39-18 39-39 0-22-17-40-39-40-22 0-39 18-39 40z m216-32l-41 0c-1-14-4-27-7-40l20 0 56-197-410 0 56 197 20 0c-3 13-6 26-7 40l-41 0-79-276 512 0z"/>
<glyph glyph-name="recreation" unicode="&#57374;" d="M256 512c-141 0-256-115-256-256 0-141 115-256 256-256 141 0 256 115 256 256 0 141-115 256-256 256z m215-136c-6 6-14 12-21 15-10 17-33 44-53 66 30-21 56-49 74-81z m-215-320c-32-3-80 7-106 22 0 0 0 1 0 1-19 26-34 49-41 79 11 18 44 59 64 79 20-7 85-18 101-18l46-101c-12-15-51-58-64-62 0 0 0 0 0 0z m27 167c14 16 47 70 52 88 14 2 78 2 95-1 13-11 25-38 37-82 4-33-27-86-52-100-28-7-68-6-86-6z m87 248c24-22 61-66 73-87 0-16-4-45-13-64-23 3-80 3-96 1-9 18-53 61-68 72 0 14 16 69 21 77 15 2 47 5 83 1z m-267-22c30 23 65 40 104 48 36-4 62-18 70-25-7-15-20-60-21-77-20-4-81-30-96-40-15 8-56 25-72 31 2 21 10 49 15 63z m-69-299c-16 32-24 68-24 106 0 23 3 46 9 67 1-3 2-6 3-8-3-32 3-109 14-126-2-12-3-29-2-39z m9 47c-8 17-15 88-11 118 10 17 31 53 50 62 15-4 59-23 73-30-1-21 5-85 11-103-20-20-50-57-63-77-21 9-44 18-60 30z m254-184c-14-2-27-3-41-3-60 0-115 22-158 58 1-1 2-2 3-2 0 0 29-4 43 4 24-14 66-24 99-24 8 0 15 0 21 1 11-8 29-16 39-19z m11 3l5 11c27 3 75 26 88 39l7-4c-29-22-63-38-100-46z m108 53l-10 5c5 10 13 30 13 45 28 15 60 68 58 105 9 3 19 10 25 18-4-69-37-131-86-173z"/>
<glyph glyph-name="in-roomamenities" unicode="&#57376;" d="M116 99c-1 3-3 5-6 5-3 0-6-2-6-5l-6-29c0-1 0-2 0-3 0-6 5-12 12-12 6 0 12 6 12 12 0 1 0 2 0 3z m292 0c0 3-3 5-6 5-3 0-5-2-6-5l-6-29c0-1 0-2 0-3 0-6 6-12 12-12 7 0 12 6 12 12 0 1 0 2 0 3z m-49 0c0 3-3 5-5 5-3 0-6-2-6-5l-6-29c-1-1-1-2-1-3 0-6 6-12 13-12 6 0 12 6 12 12 0 1 0 2-1 3z m-48 0c-1 3-3 5-6 5-3 0-6-2-6-5l-6-29c0-1 0-2 0-3 0-6 5-12 12-12 6 0 12 6 12 12 0 1 0 2 0 3z m-49 0c-1 3-3 5-6 5-3 0-5-2-6-5l-6-29c0-1 0-2 0-3 0-6 5-12 12-12 7 0 12 6 12 12 0 1 0 2 0 3z m-49 0c0 3-3 5-6 5-3 0-5-2-6-5l-6-29c0-1 0-2 0-3 0-6 6-12 12-12 7 0 12 6 12 12 0 1 0 2 0 3z m-49 0c0 3-3 5-6 5-2 0-5-2-5-5l-6-29c-1-1-1-2-1-3 0-6 6-12 12-12 7 0 13 6 13 12 0 1 0 2-1 3z m263 249l-342 0c-6 0-12-6-12-13l0-195c0-6 6-12 12-12l342 0c6 0 12 6 12 12l0 195c0 7-6 13-12 13z m85 85c0 13-11 24-24 24-14 0-25-11-25-24l0-12-414 0 0 12c0 13-11 24-25 24-13 0-24-11-24-24l0-73 0 0c0 0 0 0 0-1 0-13 11-24 24-24 14 0 25 11 25 24 0 1 0 1 0 1l0 0 0 12 414 0 0-12 0 0c0 0 0 0 0-1 0-13 11-24 25-24 13 0 24 11 24 24 0 1 0 1 0 1l0 0z"/>
<glyph glyph-name="roomservice" unicode="&#57377;" d="M486 269l-32 0c-19 83-82 136-160 151 0 0 0 1 0 2 0 21-17 39-38 39-21 0-38-18-38-39 0 0 0-2 0-2-78-15-141-68-160-151l-32 0c-15 0-26-12-26-26 0-14 11-25 26-25l460 0c15 0 26 11 26 25 0 14-11 26-26 26z m-99-64c-4 0-8-1-11-3-36-24-29-60-63-64-83-10-159 57-188 57-11 0-23-10-23-21 0-25 108-42 167-123l111 0c0 0-6 49 18 111 4 11 12 11 12 20 0 13-11 23-23 23z"/>
<glyph glyph-name="accesstobusinesscenters" unicode="&#57378;" d="M0 51l512 0 0-51-512 0z m461 269l51 0 0-250-51 0z m-96 0l51 0 0-250-51 0z m-365 0l51 0 0-250-51 0z m96 0l51 0 0-250-51 0z m166-198l0 16c13 1 24 4 31 10 7 6 11 14 11 24 0 9-2 15-7 21-4 5-11 9-19 12-9 3-13 4-15 4l-1 1 0 30c7 0 8-2 11-5 2-2 4-6 5-11l23 3c-2 8-5 13-8 18-3 4-7 7-12 9-5 2-12 3-19 4l0 11-12 0 0-11c-13-1-22-4-28-9-7-5-10-13-10-23 0-6 2-12 4-16 3-5 7-8 12-11 5-3 12-6 21-8 0 0 0 0 0 0 1 0 1 0 1-1l0-34c-7 1-10 3-13 6-4 3-5 8-6 14l-22-4c2-11 5-20 12-25 7-5 16-8 29-9l0-16z m0 66c7-2 11-3 13-4 2-1 3-3 4-5 2-2 2-4 2-7 0-10-6-15-19-16z m-22 28c-2 1-3 3-4 4 0 2-2 4-2 7 0 8 3 13 16 14l0-29c-7 2-8 3-10 4z m-227 123l487 0c6 0 12 7 12 14 0 4-3 9-6 11l0-1-237 143 0 0c-4 6-8 3-13 3-4 0-9 3-12-3l0 0-238-143 0 1c-3-2-5-7-5-12 0-6 5-13 12-13z m243 149c34 0 61-27 61-60 0-34-27-61-61-61-33 0-61 27-61 61 0 33 28 60 61 60z m-6-109l42 86-85-43 43 0z"/>
<glyph glyph-name="accesstoshoppingspots" unicode="&#57379;" d="M320 331c50 0 90 41 90 91 0 50-40 90-90 90-50 0-90-40-90-90 0-50 40-91 90-91z m52 140l-58-120 0 59-64 0z m30-446c0-14-11-25-25-25-14 0-25 11-25 25 0 14 11 25 25 25 14 0 25-11 25-25z m-130 0c0-14-11-25-25-25-14 0-25 11-25 25 0 14 11 25 25 25 14 0 25-11 25-25z m241 231c0 14-12 26-25 26l-336 0-32 93 0-1c-4 10-13 16-24 16l-70 0c-14 0-25-11-25-25 0-14 11-26 25-26l52 0 85-243 0-1c3-10 12-18 23-18l251 0c11 0 21 9 24 19l0 1 50 151 0 0c1 3 2 5 2 8z"/>
<glyph glyph-name="toiletries" unicode="&#57380;" d="M115 456l0-27-25 0 0-51 108 0 0 51-25 0 0 26c57-4 85-22 95-25 6-2 11 7 7 13-7 12-55 33-135 33-84 0-120 36-127 36-6 0-10-7-10-15 0-36 48-41 112-41z m78-98l-109 0c-46 0-78-36-78-82l0-276 276 0 0 276c0 46-43 82-89 82z m63-326l-32 0 0 239c0 23-14 44-32 57 11-2 25-7 33-13 17-13 31-33 31-55z m254 6c0 0-60 229-60 229-7 24-29 41-53 43l-24 114c-1 5-7 9-12 8-6-1-10-7-8-12l25-121c1-6 8-7 11-9 3-1 8-11 10-19l16-80 34-166c1-6 7-9 12-8l41 8c5 2 9 7 8 13z m-122 372l39 12 3-15-40-12 4-12 39 12 3-15-40-12 3-11 40 11 3-15-40-11 3-12 41 11c4-6 13-9 21-9 33 2 45 41 30 52-12 10-17-14-22-10-8 5-17 61-17 61-3 12-8 20-21 17-12-2-13-9-12-18l-40-12z"/>
<glyph glyph-name="livingspace" unicode="&#57381;" d="M288 196c-12 0-23-9-24-21 0 0 0 0 0 0l-13-92c0-6-5-13-12-13l-146 0c-6 0-11 7-12 13l-12 91c0 0 0 1 0 1-2 12-12 21-25 21-13 0-24-11-24-24 0-6 2-12 6-17l41-77c1-1 1-1 1-8l-4 0 0-32c0-7 9-19 16-19l3 0 0-6c0-6 4-13 11-13l12 0c7 0 9 7 9 13l0 6c0 13 3 0 3 0l93 0 0-6c0-6 10-13 17-13l12 0c7 0 10 7 10 13l0 13c0 0 0 0 0 0 7 0 12 5 12 12l0 32 2 0c0 7 0 7 1 8l45 81c-1-1-2-1-2-2 3 5 5 11 5 15 0 13-11 24-25 24z m-24-24c0 0 0 0 0 0 0 0 0 0 0 0 0 0 0 0 0 1 0-1 0-1 0-1z m-171-74c1-5 6-8 12-8l122 0c6 0 11 3 12 8l0-4 5 28-156 0 5-27z m-7 43l160 0 6 37c1 7 4 13 9 18-11 43-49 74-95 74-45 0-83-32-94-74 4-5 7-11 9-18z m272-83l122 0 0-45-122 0z m-12 57l147 0 0-51-147 0z m37-103l12 0 0-12-12 0z m61 0l12 0 0-12-12 0z m6 194c0-1-2-3-4-3-1 0-3 2-3 3 0 2 2 3 3 3 2 0 4-1 4-3z m7 0c0-1-2-3-3-3-2 0-3 2-3 3 0 2 1 3 3 3 1 0 3-1 3-3z m-4-6c0-2-1-3-3-3-2 0-3 1-3 3 0 2 1 3 3 3 2 0 3-1 3-3z m-60 7c0-1-1-3-3-3-1 0-3 2-3 3 0 2 2 3 3 3 2 0 3-1 3-3z m-2 7c0-2-2-3-4-3-1 0-3 1-3 3 0 2 2 3 3 3 2 0 4-1 4-3z m7-1c0-1-2-3-3-3-2 0-3 2-3 3 0 2 1 3 3 3 1 0 3-1 3-3z m13 19c0-2-1-3-3-3-2 0-3 1-3 3 0 2 1 3 3 3 2 0 3-1 3-3z m0 7c0-2-1-3-3-3-2 0-3 1-3 3 0 2 1 3 3 3 2 0 3-1 3-3z m6-3c0-2-1-3-3-3-1 0-3 1-3 3 0 2 2 3 3 3 2 0 3-1 3-3z m-23-27c0-1 0 1 1 0 7-5 12-11 16-17l-6 0c-2 0-4-4-3-7l6-17c1-3 0-7-2-9 0 0-11-10-11-20 0-7 7-18 7-18 2-2 5-6 8-6l20 0c2 0 6 4 8 6 0 0 6 9 6 17 0 10-11 21-11 21-3 1-4 5-3 8l5 18c1 3 0 7-3 7l-1 0c3 0 8 8 13 10 1 0 1 0 1 1 0 0-1 2-2 2-6-3-11-13-15-13l-4 0c0 6-1 27-9 41 0 0-1 0-1-1-1 0-1 1-1 0 8-13 9-34 8-40l-8 0c-3 6-9 14-17 19 0 1-1-2-2-2z m33 16c0 0 1 0 1 0 0 0 0-1 0-1-3-2-4-3-5-5 2-1 5 0 7 2 1 2 2 5 1 7-2 1-5 0-7-2-1-2-2-4-2-6 2 1 3 3 5 5z m-15-13c2-2 4-3 6-3 0 2-2 5-4 6-3 1-5 1-7-1 0-2 1-5 4-6 2-1 4-1 6 0-2 1-4 2-6 3 0 1 0 1 0 1 0 0 0 0 1 0z m-14-21c2 0 4 1 6 3-2 0-5 0-7 0 0 0-1 0-1 0 0 0 1 1 1 1 3-1 5 0 7 0-2 2-4 3-7 3-2 0-5-2-6-4 2-2 4-3 7-3z m-110 309c0-7-5-12-12-12-7 0-12 5-12 12 0 7 5 12 12 12 7 0 12-5 12-12z m-97-154l170 0c7 0 10 1 10 8l0 97c0 7-4 12-11 12l-67 31c-1-1-1-4-2-5l59-28-148 0 59 28c-1 1-2 3-2 5l-71-31c-7 0-15-5-15-12l0-97c0-7 11-8 18-8z m140 100c10 0 18-8 18-18 0-10-8-18-18-18-10 0-18 8-18 18 0 10 8 18 18 18z m-139-74l36 59c0 0 1 1 1 1 1 1 3 2 4 2 2 0 4-1 5-2 0-1 0-1 0-1l27-43 25 20c1 0 1 0 1 1 1 0 2 1 3 1 2 0 4-1 5-3 0 0 0-1 1-1l43-54-140 0c-7 0-12 6-12 13 0 2 0 5 1 7z"/>
<glyph glyph-name="travelrecommendations" unicode="&#57382;" d="M235 319c-2-2-7-1-6-5 1-1 1-1 2-2 3 1 6 3 9 4 0 1-1 2-1 2-1 1-4 2-4 1z m-20 24c-5-2-13-1-14-8 3-2 5-3 8-1 0 1 2 2 3 1 3 0 7-1 10-2-2-1-4-1-6-2-5-2-4-7-5-11-1-3 0-5 5-8 0 3 2 6 2 9 0 5 4 9 9 8 0-3-4-4 1-7 6-4 6 1 8 3 1 0 3 0 3 1 0 2-1 4-2 5-3 3-6 3-8 0-2 2-4 4-4 6-2 3-7 8-10 6z m30-23c3 1 5 2 8 3-6 4-8 1-10 0 0 0 0-1 0-2 0 0 2-1 2-1z m263-94c0 123-100 222-223 222-8 0-16 0-23-1l0-53c7 2 6 2 12 0 2-1 4-2 6-3 1-1 3-3 3-4 1-5 0-5 6-8 3 2 6 5 10 8 2-4 3-7 5-11 1-1 1-3 3-5 2-3 4-5 0-7 3-1 4-1 5-1 1 0 2 1 3 1 2 0 4-1 6-2 0-2 0-4-1-5-3-2-7-5-12-6-4-1-9-1-13-1-9 0-14-4-20-8 0 0 0-1 0-2 1 0 3-1 3-1 3 2 5 3 7 4 2 1 4 1 7 1 1-4-6-7 1-11 3-2 7-2 11-3-5-2-10-5-15-7 0 0-1 1-1 1 2 2 4 3 7 5-1 0-1 0-1 1-1 0-4 1-5 0-6-2-11-5-17-8 0 0-1-1-1-2 1-5-3-6-6-7-3-1-6-2-7-5-1-3-3-6-6-8-2-2-2-2-1-6 2-6-2-8-6-11-4-3-7-7-10-11-2-3 0-7 2-11 2-4 6-9 4-14-3 1-9 8-9 11-1 6-4 8-10 8-2 0-4 1-6 2-7 2-10 1-11-5-2 0-4 1-6 2-7 3-10 0-14-1-9-3-9-10-8-18 1-6 1-12 5-18 8-12 16-14 24-8 1 1 3 3 3 5 0 5 4 6 11 4-1-6-1-12-2-18 0-1 1-3 1-5 6 0 11 1 16 0 1 0 4-2 4-4 1-4 2-8 3-13 1-7 11-13 16-10 1 0 3 0 4 1-1-2-3-4-5-6-11 4-15 4-32 24-4-2-14 1-19 5-7 7-9 7-15 5-3-2-6 1-9 2-9 3-19 6-27 13-1 1-3 3-3 4 0 7-6 12-12 18-8 7-16 15-20 24-1 1-2 2-2 3-3-1-5-1-7-1 0-1 1-2 2-4 1 0 1-2 2-3 6-8 12-16 17-25-3 3-7 5-8 10 0 1-3 3-5 5-3 1-4 3-4 5 0 1 0 2 0 2-3 3-5 6-7 10-3-1-5-1-7-1-12 0-23 2-33 7-4-17-6-34-6-51 0-123 100-223 223-223 26 0 51 4 75 13l0 0c0 0 0 0 1 0 0 0 1 1 2 1 0 0 0 0 0 0 35 13 66 35 90 62 0 0 0 0 0 0 0 1 1 2 1 2 1 1 2 2 3 3l0 0c31 39 51 88 51 142z m-233-2c5-1 10-2 15-3-5-4-15-5-20-3 6 0 7 0 5 6z m-20 2c-3 5-8 6-13 8-4 1-9 0-12 0 2 3 6 4 11 2 9-2 18-6 27-9 0-1 0-2 0-2-5 0-9 0-13 1z m200-124c-1-4-2-7-4-11l0 0c-24-29-56-52-92-66-1 2-2 4-2 6-1 2-2 5-3 7-1 2-2 3-2 4-2 17-12 26-27 32-7 3-13 7-17 13-1 2-4 4-6 6-5 5-10 11-15 16-1 2-3 4-6 6-5 3-7 6-6 10 1 2 1 4 2 5-7 4-7 7-5 14 2 5 6 9 4 15-1 4-3 7-5 11-1 2-2 4-4 7-1 0-3 2-5 3 3-1 7-3 11-4 2 7 7 12 15 16 0-5-2-9 4-14 1 2 3 3 0 7-1 0 1 3 2 4 1 1 4 0 6-1 5-4 11-5 15-5 5 0 9-1 13-3 5-2 10-4 14-9 5-4 11-7 17-6 4 1 15-4 18-9 2-4 8-8 6-13-1-2-3-3-3-5-1-1 0-2 0-3 1 0 2 0 3 1 1 1 1 3 2 4 2 1 4 2 6 0 1-1 0-4 0-5 0-1-2-1-2-1 4-3 6-1 7 1 2 3 10 2 13-2 1-1 1-3 2-6 6 6 14 2 21 1 2 0 4-4 7-5 3-2 6-3 8-4 5-1 9-4 9-8 0-3 0-7-1-9z m-419 406c-17 0-32-14-32-32l0-76c0-18 15-32 32-32l149 0c17 0 32 14 32 32l0 76c0 18-15 32-32 32z m10-86c-9 0-16 7-16 16 0 9 7 16 16 16 9 0 16-7 16-16 0-9-7-16-16-16z m64 0c-8 0-16 7-16 16 0 9 8 16 16 16 9 0 16-7 16-16 0-9-7-16-16-16z m65 0c-9 0-16 7-16 16 0 9 7 16 16 16 9 0 16-7 16-16 0-9-7-16-16-16z m-69-129c-20 20-26 55-18 75l-56 0c0-45 33-75 74-75z"/>
<glyph glyph-name="vendingmachines" unicode="&#57383;" d="M169 389c0-23-18-41-41-41-23 0-41 18-41 41 0 23 18 41 41 41 23 0 41-18 41-41z m-67 123l0-51c8 3 17 5 26 5 9 0 18-2 26-5l0 25 230 0 0-307-169 0 0-24 169 0 0-76-169 0 0-28 246 0 0-51 25 0 0 51 26 0 0 461z m359-280l-51 0 0 26 51 0z m0 51l-51 0 0 75 51 0z m0 101l-51 0 0 102 51 0z m-169-200l15 21-55 42-63 81-122 0-64-64c-2-2-3-5-3-8 0-3 1-6 3-8l64-64 0-184 41 0 0 143 40 0 0-143 41 0 0 276 43-51z m-225 41l-31 31 31 31z"/>
<glyph glyph-name="nearpublictransportation" unicode="&#57384;" d="M486 442l0 21c0 27-21 49-48 49l-365 0c-27 0-47-22-47-49l0-21-26 0 0-52 26 0 0-292c0-27 20-47 47-47l10 0 0-39c0-7 7-12 14-12l24 0c7 0 13 5 13 12l0 39 244 0 0-39c0-7 5-12 12-12l24 0c7 0 15 5 15 12l0 39 9 0c27 0 48 20 48 47l0 292 26 0 0 52z m-401-344c-14 0-25 10-25 24 0 13 11 24 25 24 13 0 24-11 24-24 0-14-11-24-24-24z m293-2l-244 0 0 26 244 0z m-218 51l0 26 192 0 0-26z m266-49c-13 0-24 10-24 24 0 13 11 24 24 24 14 0 25-11 25-24 0-14-11-24-25-24z m41 221c0-14-11-25-24-25l-367 0c-14 0-25 11-25 25l0 143c0 13 11 24 25 24l367 0c13 0 24-11 24-24z m-224 59l0-58 63 120-121-62z"/>
<glyph glyph-name="airconditioning" unicode="&#57385;" d="M411 170c14 25 6 58-20 73-27 15-57 21-86 18-1 0-2 0-3 0-1 6-5 12-9 17 0 1 1 1 2 2 16 24 26 52 26 83 0 30-24 54-53 54-30 0-54-24-54-54 0-31 10-59 27-83 1-1 2-1 2-2-5-5-8-11-10-17-1 0-2 0-3 0-28 3-58-3-85-18-26-15-35-48-20-73 15-26 48-34 73-20 27 16 47 39 59 65 0 1 1 2 1 3 3-1 6-1 10-1 3 0 7 0 10 1 0-1 0-2 1-3 12-26 32-49 59-65 25-14 58-6 73 20z m-143 64c-10 0-18 8-18 18 0 10 8 18 18 18 10 0 18-8 18-18 0-10-8-18-18-18z m-224 25l20-15-15 84-49-70 27 5c-7-106 56-204 157-241l6 17c-92 34-151 123-146 220z m464 35l-17-3c17-97-31-192-117-236l2 24-64-55 84-7-17 20c56 28 98 76 119 133 14 38 18 81 10 124z m-122 148l-23-10 80-29-35 78-9-26c-89 59-205 53-288-16l11-14c76 64 182 70 264 17z"/>
<glyph glyph-name="pool" unicode="&#57386;" d="M384 329c35 0 64 28 64 64 0 35-29 64-64 64-35 0-64-29-64-64 0-36 29-64 64-64z m64-214c-28 0-53 17-64 43-11-26-36-43-64-43-28 0-53 17-64 43-11-26-36-43-64-43-28 0-53 17-64 43-11-26-36-43-64-43-28 0-53 17-64 43l0-64c11-26 36-43 64-43 28 0 53 17 64 43 11-26 36-43 64-43 28 0 53 17 64 43 11-26 36-43 64-43 28 0 53 17 64 43 11-26 36-43 64-43 28 0 53 17 64 43l0 64c-11-26-36-43-64-43z m0 128c-28 0-53 17-64 43-6-14-16-26-29-33 5 8 8 19 8 33 0 1 0 1 0 2l-86 102c-3 4-14 6-20 4-31-8-87-67-125-116-1 2-3 5-4 8-11-26-36-43-64-43-28 0-53 17-64 43l0-64c11-26 36-43 64-43 28 0 53 17 64 43 11-26 36-43 64-43 27 0 52 16 63 41 1 0 1 0 2 0 11-25 36-41 63-41 28 0 53 17 64 43 11-26 36-43 64-43 28 0 53 17 64 43l0 64c-11-26-36-43-64-43z m-416 77c0-1 0-1 0-2 2-3 5-6 8-8 10-6 23-3 29 7 0 1 1 1 1 1l56 97 91-22c1 0 3 0 5 0 12 0 21 9 21 21 0 8-5 15-12 19-1 1-3 1-4 2l-107 25c-1 1-3 1-5 1-7 0-14-4-18-10 0 0 0 0 0-1l-64-111 0 0c-4-6-4-13-1-19z"/>
<glyph glyph-name="view" unicode="&#57387;" d="M508 82l0-2-93 138 0 0c-4 6-11 10-19 10-8 0-16-4-20-10l0 0-71-106-75 150 0 0c-4 7-11 13-21 13-9 0-16-6-20-13l0 0-73-146-25 50 0 0c-4 13-12 13-21 13-9 0-17 0-21-13l0 0-47-90 1 2c-2-3-3-6-3-10 0-13 10-23 23-23l466 0c13 0 23 11 23 24 0 4-1 9-4 13z m-134 242c29 0 55 18 66 43-9-4-19-6-30-6-40 0-73 33-73 73 0 11 2 21 7 30-26-11-44-37-44-67 0-40 33-73 74-73z m-304-49l70 0c12 0 23 12 23 25 0 13-11 24-23 24-1 0-2 1-2 1-5 13-18 23-33 23-16 0-28-9-33-23-1 0-2 0-2 0-13 0-23-12-23-25 0-13 10-25 23-25z"/>
<glyph glyph-name="wi-fiandtelephone" unicode="&#57388;" d="M316 124l-33 7c-13 4-31-1-40-11l-15-14c-9-10-26-11-37-3l-88 88c-7 11-6 27 4 37l14 14c10 10 14 28 10 41l-6 33c-1 13-13 23-27 23l-12 0c-13 0-32 0-42 0-10 0-18-1-18-6 0 0 0 0 0-4 0-53 13-102 36-146 28-51 71-93 122-121 44-24 93-36 146-36 4 0 4 0 4 0 4 0 5 7 5 17 0 10 0 29 0 43l0 12c0 13-9 25-23 26z m54 188c0-11-9-19-20-19-10 0-19 8-19 19 0 11 9 20 19 20 11 0 20-9 20-20z m63 63c-21 21-50 35-83 35-32 0-61-14-82-35l27-27c14 14 34 23 55 23 22 0 41-9 56-23z m-83 74c43 0 83-18 111-46l27 27c-35 36-84 58-138 58-53 0-102-22-138-58l28-27c28 28 67 46 110 46z m161-439l-500 500c-1 1-3 2-4 2-4 0-6-3-6-6 0-2 0-3 1-4l500-500c1-1 3-2 5-2 3 0 6 3 6 6 0 2-1 3-2 4z"/>
<glyph glyph-name="proximitytoattractions" unicode="&#57389;" d="M183 473c-4 19-19 34-39 38-20 3-39-6-49-22-10-3-18-8-26-14l133-24c-5 9-11 16-19 22z m-100-34c0-27 22-49 48-49 27 0 49 22 49 49 0 1 0 3 0 4l-92 16c-3-6-5-13-5-20z m147-61l-22-4-4 4-145 0-1-4-20 4 0-26-37-34 26-25 11 3 0-52 26-3 0-241 45 0 0 160 51 0 0-160 51 0 0 241 19 3 0 52 10-3 25 25-35 34z m-12-50l-28 6c-24 0-23-20-23-20l51-14 0-45-84-12-83 12 0 45 47 14c0 0 4 20-21 20l-26-6 0 36 83-12 84 12z m172 62l0-74 71 146-148-72z m8 122c-62 0-112-50-112-112 0-61 50-112 112-112 61 0 112 51 112 112 0 62-51 112-112 112z m0-218c-59 0-106 48-106 106 0 59 47 106 106 106 58 0 106-47 106-106 0-58-48-106-106-106z"/>
<glyph glyph-name="checkin" unicode="&#57390;" d="M256 386c3-2 8-2 10 1l27 32c2 3 2 7-1 9l-21 18c-3 3-7 2-10-1l-27-31c-2-3-2-8 1-10z m90 59l0-2c0-19 15-35 35-35 19 0 34 16 34 35l0 2c4 3 7 9 7 15 0 6-3 12-7 16l0 1c0 20-15 35-34 35-20 0-35-15-35-35l0-1c-4-4-7-10-7-16 0-6 3-12 7-15z m152-196l-28 0 0 69c0 27-11 50-29 67-9 8-19 14-31 18-8-5-18-9-29-9-11 0-22 4-30 9-12-4-22-10-31-18-18-17-29-40-29-67l0-69-138 0 0 50 4-4 5-4c1-1 1-1 2-1 0-1 0-1 1-1 2-1 4-1 6-2 0 0 0 0 0 0 0 0 0 0 1 0 0 1 0 1 0 1 1 0 1 0 1 0 0 0 1 0 1 0 0 0 0 0 0 0 2 0 4 1 6 2 0 1 0 1 0 1 1 0 1 1 2 1l4 6 54 63c5 6 4 15-2 20l-5 4c-6 5-15 4-20-1l-44-53-32 26c0 0-1 1-1 1-3 3-7 6-12 9-8-5-17-7-27-7-9 0-18 2-26 7-17-10-29-28-29-49l0-69-28 0c-8 0-14-6-14-14l0-14c0-7 6-13 14-13l277 0 0-21c0-3 3-6 7-6l27 0 0-167c0-8 6-14 14-14l14 0c8 0 14 6 14 14l0 166 27 0 0-166c0-8 7-14 14-14l14 0c8 0 14 6 14 14l0 167 28 0c3 0 6 3 6 6l0 21 28 0c8 0 14 6 14 13l0 14c0 8-6 14-14 14z m-435 161l0-2c0-19 15-34 34-34 19 0 35 15 35 34l0 2c4 4 7 9 7 16 0 6-3 11-7 15l0 2c0 19-16 34-35 34-19 0-34-15-34-34l0-2c-4-4-7-9-7-15 0-7 3-12 7-16z m48-9c0-7-6-14-14-14-7 0-13 7-13 14z"/>
<glyph glyph-name="checkout" unicode="&#57391;" d="M350 255l0-137c0-7-5-12-12-12l-89 0 0 303c0 6-5 13-11 16l-188 68 288 0c7 0 12-5 12-12l0-20c4 1 8 2 12 2 4 0 8-1 11-3l0 38c0 8-6 14-13 14l-346 0c-5 0-9-3-11-6-2-2-3-4-3-7l0-400c0-6 5-13 11-16l227-82c6-3 11 1 11 8l0 79 111 0c7 0 13 6 13 14l0 153c-3-2-7-2-11-2-4 0-8 0-12 2z m162 118l-98 75 0-35c-62-16-104-74-98-138 17 38 56 62 98 59l0-36z"/>
<glyph glyph-name="coffee" unicode="&#57392;" d="M0 26l427 0 0-26-427 0z m461 256l-34 0 0 17-427 0 0-43c0-118 96-213 213-213 76 0 143 40 181 100 10-4 21-6 33-6 4 0 9 0 13 0 46 7 72 47 72 93 0 29-23 52-51 52z m-23-128c-4 0-8 0-11 0-9 0-17 1-24 4 15 29 24 62 24 98l0 9 34 0c19 0 34-16 34-35 0-38-20-70-57-76z m-219 187c0 0-48 25 6 86 54 60-12 80-20 85 8-5 50-25-4-85-54-61 18-86 18-86z m84-7c0 0-38 19 5 68 43 48-9 63-16 67 7-4 40-19-3-67-43-49 14-68 14-68z m-172-10c0 0-24 13 3 43 27 30-6 40-10 43 4-3 25-13-2-43-27-30 9-43 9-43z"/>
<glyph glyph-name="reservation" unicode="&#57393;" d="M128 433c11 0 19 9 19 20l0 39c0 11-8 20-19 20-11 0-19-9-19-20l0-39c0-11 8-20 19-20z m256 0c11 0 19 9 19 20l0 39c0 11-8 20-19 20-11 0-19-9-19-20l0-39c0-11 8-20 19-20z m108 41l-70 0 0-21c0-22-16-39-38-39-22 0-38 17-38 39l0 21-180 0 0-21c0-22-16-39-38-39-22 0-38 17-38 39l0 21-70 0c-11 0-20-10-20-21l0-433c0-11 9-20 20-20l472 0c11 0 20 9 20 20l0 433c0 11-9 21-20 21z m-57-397l-358 0 0 320 358 0z m-187 146c13 0 25 7 33 16-2-28-15-47-55-47l-2 0 0-26 2 0c65 0 81 46 81 94l0 9c0 37-17 69-54 69-35 0-54-27-54-59 0-30 16-56 49-56z m6 92c15 0 28-14 28-41l0-11c-7-11-16-18-28-18-18 0-26 17-26 35 0 19 9 35 26 35z"/>
<glyph glyph-name="room" unicode="&#57375;" d="M343 403l81 0c4 0 8 6 8 10 0 2 0 4-1 5l-24 50c-2 3-4 6-8 6l-32 0c-3 0-6-3-7-6l-25-49c0-1-1-4-1-6 0-4 4-10 9-10z m28 109l19 0 0-32-19 0z m122-236c-11 0-19-9-19-20l0-58-45 0 0 58c0 11-7 20-18 20l-195 39c-11 0-18-9-18-20l0-77-115 0 0-20-45 0 0 176c0 11-8 20-19 20-11 0-19-9-19-20l0-354c0-11 8-20 19-20 11 0 19 9 19 20l0 95 436 0 0-95c0-11 8-20 19-20 11 0 19 9 19 20l0 236c0 11-8 20-19 20z m-337 0c0-22-17-40-39-40-22 0-40 18-40 40 0 21 18 39 40 39 22 0 39-18 39-39z"/>
<glyph glyph-name="conferencerooms" unicode="&#57394;" d="M507 356c0-18-15-33-34-33-18 0-33 15-33 33 0 19 15 34 33 34 19 0 34-15 34-34z m-201 56c0-25-20-45-44-45-25 0-45 20-45 45 0 24 20 44 45 44 24 0 44-20 44-44z m164-111c-24 0-41-20-41-45l0-64-45 0c-12 0-26-13-26-25l0-89c0-12 11-22 23-22 12 0 22 10 22 22l0 69 81 0c19 0 28 13 28 31l0 78c0 25-17 45-42 45z m-386 55c0-18-15-33-34-33-18 0-33 15-33 33 0 19 15 34 33 34 19 0 34-15 34-34z m55-164l-49 0 0 64c0 25-21 45-45 45-25 0-45-20-45-45l0-78c0-18 21-31 39-31l76 0 0-69c0-12 10-22 23-22 12 0 22 10 22 22l0 89c0 12-8 25-21 25z m143 19l134 0 0 45-90 0 0 78c0 6-3 12-9 12l-111 0c-6 0-14-6-14-12l0-78-90 0 0-45 135 0 0-134-19 0 0-19 89 0 0 19-25 0z"/>
<glyph glyph-name="fitness-room" unicode="&#57395;" d="M122 378c-14 0-24-11-24-24l0-196c0-13 10-24 24-24 13 0 24 11 24 24l0 196c0 13-11 24-24 24z m-61-49c-14 0-24-11-24-24l0-98c0-13 10-24 24-24 13 0 24 11 24 24l0 98c0 13-11 24-24 24z m280-55l-170 0c-7 0-13-5-13-12l0-12c0-7 6-12 13-12l170 0c7 0 13 5 13 12l0 12c0 7-6 12-13 12z m-329 19c-7 0-12-6-12-13l0-48c0-7 5-13 12-13 7 0 12 6 12 13l0 48c0 7-5 13-12 13z m378 85c-13 0-24-11-24-24l0-196c0-13 11-24 24-24 14 0 24 11 24 24l0 196c0 13-10 24-24 24z m61-49c-13 0-24-11-24-24l0-98c0-13 11-24 24-24 14 0 24 11 24 24l0 98c0 13-10 24-24 24z m49-36c-7 0-12-6-12-13l0-48c0-7 5-13 12-13 7 0 12 6 12 13l0 48c0 7-5 13-12 13z"/>
<glyph glyph-name="roomavailability" unicode="&#57396;" d="M295 88l-10-11-11 11-31-32-11 11 42 41-10 11-11-11-10 11-11-11-10 11-21-21-54 54c6 11 6 24 1 36 2 9 2 19 0 29l0 0c7 16 4 35-9 48-13 13-32 16-48 9l0 0c-24 5-49-2-67-20-18-18-25-43-20-66l0 0c-7-16-3-35 10-48 13-13 32-16 48-10l0 0c9-2 19-2 29 0 11-5 24-4 35 1l127-127c6-5 15-5 21 0 6 6 6 15 0 21l42 42z m-198 93c-12-11-30-11-42 0-11 12-11 31 0 42 12 12 30 12 42 0 11-11 11-30 0-42z m405 321c-14 13-36 13-50 0l-147-148-46 47c-7 6-16 10-26 10-19 0-35-16-35-36 0-9 4-18 10-25l71-71c7-7 16-11 26-11 10 0 18 4 25 11l172 172c14 14 14 37 0 51z"/>
<glyph glyph-name="spa" unicode="&#57397;" d="M291 475c0-20-17-36-37-36-20 0-36 16-36 36 0 21 16 37 36 37 20 0 37-16 37-37z m203-316c-2 0-4-1-6-1l-57-19-43 91c-3 8-12 14-22 14-1 0-1 0-2 0l-331-37c-18-2-32-17-32-36 0-20 16-37 36-37l352 0 16-27c4-6 9-9 16-9 2 0 4 0 6 1l73 24c7 3 13 9 13 17 0 11-9 19-19 19z m-6 73c0-20-16-37-36-37-21 0-37 17-37 37 0 20 16 36 37 36 20 0 36-16 36-36z m-319 12c1 0 2 0 2 0 1 0 1 0 1 0l98 12c12 2 21 12 21 25 0 2-1 5-1 7l-19 43 62-58c1 0 2-1 3-2 3-2 6-3 10-3 10 0 18 9 18 19 0 4-2 9-5 12l-123 132c-2 1-3 2-4 3-4 3-9 5-14 5-11 0-20-7-24-17l-48-146c-1-3-1-5-1-8 0-13 11-24 24-24z m208-135l-364 0 0 1c-7-1-11-6-11-12 0-6 4-11 11-12l0-3 38 0 0-83 19 0 0 83 244 0 0-83 25 0 0 83 38 0c6 0 12 6 12 13 0 7-6 13-12 13z"/>
<glyph glyph-name="furniture" unicode="&#57398;" d="M512 41l-25 219c-2 18-17 33-36 33-17 0-32-12-36-29l-25-108c-1-6-6-10-12-10l-244 0c-6 0-10 4-12 10l-25 108c-4 17-19 29-36 29-19 0-34-15-36-33l-25-219c0-2 0-3 0-4 0-21 16-37 37-37l438 0c21 0 37 16 37 37 0 1 0 2 0 4z m-392 229c0 0 0 0 0 0l27-90 218 0 27 90c0 0 0 0 0 0l0 0c6 26 29 46 57 47l-10 161c-1 19-17 34-37 34l-292 0c-20 0-36-15-37-34l-10-161c28-1 51-21 57-47z"/>
<glyph glyph-name="laundry" unicode="&#57399;" d="M83 0l346 0 0 390-346 0z m176 329c67 0 122-55 122-122 0-67-55-122-122-122-67 0-122 55-122 122 0 67 55 122 122 122z m0-219c54 0 98 43 98 97-27 0-49 25-49 25 0 0-22-25-49-25-27 0-49 25-49 25 0 0-22-25-48-25 0-54 43-97 97-97z m146 402l-292 0c-14 0-30-11-30-24l0-72 346 0 0 72c0 13-10 24-24 24z m-97-73c-14 0-25 11-25 24 0 14 11 25 25 25 13 0 24-11 24-25 0-13-11-24-24-24z m73 0c-14 0-24 11-24 24 0 14 10 25 24 25 13 0 24-11 24-25 0-13-11-24-24-24z"/>
<glyph glyph-name="television" unicode="&#57400;" d="M328 102l-140 0c-13 0-22-10-22-23l0-34 186 0 0 34c0 13-11 23-24 23z m184 319c0 25-21 46-47 46l-418 0c-26 0-47-21-47-46l0-259c0-26 21-47 47-47l418 0c26 0 47 21 47 47z m-254-302c-10 0-19 8-19 19 0 10 9 18 19 18 10 0 19-8 19-18 0-11-9-19-19-19z m235 47l-467 0 0 276 467 0z"/>
<glyph glyph-name="circlenofill" unicode="&#57401;" d="M256 491c129 0 235-106 235-235 0-129-106-235-235-235-129 0-235 106-235 235 0 129 106 235 235 235m0 21c-141 0-256-115-256-256 0-141 115-256 256-256 141 0 256 115 256 256 0 141-115 256-256 256z"/>
<glyph glyph-name="ambience" unicode="&#97;" d="M432 180c2 6 3 12 3 18 0 33-26 59-59 59-11 0-21-3-29-8-29 41-76 67-129 67-88 0-159-70-159-158 0-13 2-27 5-39l-5 0c-32 0-59-27-59-60 0-32 27-59 59-59l317 0c54 0 99 44 99 99 0 33-17 63-43 81z m-131 199c9 22 31 36 55 36 8 0 15-1 23-4 30-13 44-48 32-78-3-7-7-13-12-18l28-28c8 9 15 19 20 31 21 51-3 108-53 129-13 5-25 8-38 8-39 0-76-23-91-61-6-13-8-26-8-39l40 0c-1 8 1 16 4 24z m97 77c1 0 2 0 3 0 4 0 8 2 10 6l15 36c2 5-1 11-6 13-5 2-11 0-13-5l-15-37c-2-5 1-10 6-13z m68-65c1 0 2 1 3 1l37 15c5 2 7 8 5 13-2 5-8 8-13 6l-36-16c-5-2-8-7-6-12 2-4 6-7 10-7z m40-86l-37 15c-5 2-10-1-13-6-2-5 1-11 6-13l36-15c2 0 3 0 4 0 4 0 8 2 9 6 2 5 0 10-5 13z m-205 157c2-4 6-6 10-6 1 0 2 0 3 0 5 3 8 8 6 13l-15 37c-3 5-8 7-13 5-5-2-8-8-6-13z m-95-55l37-15c1 0 2-1 3-1 4 0 8 3 9 7 3 5 0 10-5 13l-36 15c-5 2-11-1-13-6-2-5 0-11 5-13z"/>
<glyph glyph-name="friendliness" unicode="&#98;" d="M61 293c0-54 43-98 97-98 54 0 98 44 98 98l0 10c9 11 14 24 14 39 0 15-5 28-14 39l0 10c0 54-44 98-98 98-54 0-97-44-97-98l0-10c-9-11-14-24-14-39 0-15 5-28 14-39l0-10z m135-14c0-20-17-37-38-37-20 0-37 17-37 37z m70-65c-21-39-61-65-108-65-46 0-87 26-107 65-31-29-51-70-51-116l0-75 317 0 0 75c0 46-20 87-51 116z m-50-137c-1-1-1-2-2-3 0 0 0 0 0 0l0 0c-3-3-6-4-9-4-1 0-3 0-4 0-11 3-20 9-26 18-4-4-10-7-17-7-6 0-12 3-16 7-6-9-16-15-27-18-1 0-2 0-3 0-4 0-7 1-9 4l0 0c0 0 0 0 0 0-1 1-2 2-2 3-9 15-13 33-13 51 0 6 6 12 12 12 16-1 31-8 42-19 4 4 10 7 16 7 7 0 13-3 17-7 11 11 26 18 41 19 7 0 12-6 12-12 1-18-3-36-12-51z m248 263c-27 0-48-24-48-24 0 0-21 24-48 24-27 0-48-21-48-48 0-12 4-22 11-31l66-80c5-6 12-9 19-9 7 0 14 3 19 9l66 80c7 9 11 19 11 31 0 27-21 48-48 48z"/>
<glyph glyph-name="furniture-1" unicode="&#99;" d="M138 165l-92 0-7 210c0 11-9 19-19 19-11 0-20-9-20-20l0-354c0-11 9-20 20-20 10 0 19 8 19 18l4 61 71 0 4-59c0-11 9-20 20-20 11 0 20 9 20 20l0 126c0 11-9 19-20 19z m-94-67l2 28 65 0 2-28z m448 296c-10 0-19-8-19-19l-7-210-92 0c-11 0-20-8-20-19l0-126c0-11 9-20 20-20 11 0 20 9 20 20l4 59 71 0 4-61c0-10 9-18 19-18 11 0 20 9 20 20l0 354c0 11-9 20-20 20z m-93-296l2 28 65 0 2-28z m-25 99c11 0 20 9 20 20 0 10-9 19-20 19l-236 0c-11 0-20-9-20-19 0-11 9-20 20-20l20 0c1-5 5-8 9-8l72 0 0-169-20 0 0-20 79 0 0 20-20 0 0 169 67 0c4 0 8 3 9 8l20 0z m-39 118l17 104 62 18-64 13-15 62-16-63-63-16 62-15z"/>
<glyph glyph-name="garbagehandling" unicode="&#102;" d="M98 433l316 0c10 0 19 9 19 20 0 11-9 20-19 20l-99 0c0 21-18 39-39 39l-40 0c-21 0-39-18-39-39l-99 0c-10 0-19-9-19-20 0-1 0-3 0-4 2-9 10-16 19-16z m316-39l-316 0c-10 0-19-9-19-20 0-1 0-2 0-3l59-355c0 0 0 0 0 0 2-9 10-16 20-16l196 0c10 0 18 7 20 16 0 0 0 0 0 0l59 355c0 0 0 1 0 1 0 1 0 1 0 2 0 11-9 20-19 20z m-231-197c-3 1-6 4-7 7l-7 19-4 12c-1 2-1 4-1 6 2 6 7 9 12 7l8-2c13 16 31 29 52 37 4 2 9 3 13 4-4-2-7-5-11-8-13-11-22-25-26-40l2-1c6-1 9-7 7-12 0-2-1-4-3-5l-8-7-18-15c-2-2-6-2-9-2z m128-61l-13-15-9-11c-1-1-2-2-5-3-5-1-10 2-12 7l-2 8c-20 3-40 12-57 26-4 3-8 6-11 10 4-2 8-4 13-6 16-6 33-6 48-2l-1 2c-1 5 2 11 7 12 2 1 4 1 6 0l10-4 22-8c3-1 5-4 6-7 1-3 0-6-2-9z m35 57c-1-5-2-10-4-14 0 5 0 9-1 14-3 17-11 31-22 42l-2-1c-3-4-10-4-14 0-1 1-2 3-2 5l-2 11-4 23c0 3 1 6 3 8 2 3 5 3 8 3l21-3 13-3c2 0 4-1 5-2 4-4 4-10 0-14l-5-6c7-19 10-41 6-63z"/>
<glyph glyph-name="groomingstandards" unicode="&#106;" d="M224 473c0-22-18-40-40-40-22 0-39 18-39 40 0 21 17 39 39 39 22 0 40-18 40-39z m128-32c-5 0-10-3-12-6l-34-56-23 34c-3 5-9 8-16 8l-51 0-19-92 10 0 0-119-78 0 0 119 46 0-18 92-52 0c-9-2-15-10-15-19l0-99c0-9 6-17 15-19l10 0 6-79 14 0 18-185c0 0 0 0 0 0-11 0-24-9-24-20l110 0c0 10-10 18-19 19l17 186 14 0 11 146 32-24c4-3 8-4 12-4 8 0 15 5 18 11l40 88c1 1 1 3 1 5 0 8-6 14-13 14z m-163-23c0 1-2 1-3 1-1 0-2 0-3-1-2 2-5 3-8 3-2 0-3-1-3-2 0-3 1-7 3-10 0 0 0 0 0 0 0 0 0-1 0-1l0 0c1 0 1 0 2 0 0 0 0 0 1 0 2 0 4 1 5 3 1-1 2-1 3-1 1 0 3 0 3 1 2-2 4-3 6-3 0 0 0 0 0 0 1 0 2 0 2 0l0 0c0 0 0 1 0 1 0 0 0 0 0 0 2 3 3 7 3 10 0 1-1 2-2 2-3 0-6-1-9-3z m223 37l-2 0c-4 25-24 44-48 48-1 5-5 9-10 9-5 0-9-4-10-9-25-4-44-23-48-48l-3 0c-6 0-10-1-10-6 0-5 4-6 10-6l121 0c6 0 10 1 10 6 0 5-4 6-10 6z"/>
<glyph glyph-name="service" unicode="&#122;" d="M61 293c0-54 43-98 97-98 54 0 98 44 98 98l0 10c9 11 14 24 14 39 0 15-5 28-14 39l0 10c0 54-44 98-98 98-54 0-97-44-97-98l0-10c-9-11-14-24-14-39 0-15 5-28 14-39l0-10z m135-14c0-20-17-37-38-37-20 0-37 17-37 37z m70-65c-21-39-61-65-108-65-46 0-87 26-107 65-31-29-51-70-51-116l0-75 317 0 0 75c0 46-20 87-51 116z m-50-137c-1-1-1-2-2-3 0 0 0 0 0 0l0 0c-3-3-6-4-9-4-1 0-3 0-4 0-11 3-20 9-26 18-4-4-10-7-17-7-6 0-12 3-16 7-6-9-16-15-27-18-1 0-2 0-3 0-4 0-7 1-9 4l0 0c0 0 0 0 0 0-1 1-2 2-2 3-9 15-13 33-13 51 0 6 6 12 12 12 16-1 31-8 42-19 4 4 10 7 16 7 7 0 13-3 17-7 11 11 26 18 41 19 7 0 12-6 12-12 1-18-3-36-12-51z m198 128c27 0 50 17 58 42l-115 0c8-25 30-42 57-42z m84 88l-168 0c-7 0-13-6-13-14 0-7 6-14 13-14l168 0c8 0 14 7 14 14 0 8-6 14-14 14z m-84 32c0 0-19 10 3 35 22 25-5 33-8 35 3-2 20-10-2-35-22-25 7-35 7-35z m39-18c0 0-20 13 2 44 22 31-5 41-8 44 3-3 21-13-2-44-22-31 8-44 8-44z m-77 0c0 0-14 8 2 26 16 18-4 24-6 25 2-1 15-7-1-25-16-18 5-26 5-26z"/>
<glyph glyph-name="washroom" unicode="&#65;" d="M463 473c0-22-18-40-40-40-21 0-39 18-39 40 0 21 18 39 39 39 22 0 40-18 40-39z m29-59l-138 0c-10 0-19-9-19-20 0-1 0-1 0-2l20-197c1-10 9-18 19-18l10 0c0-2 20-177 20-177l39 0c0 0 20 175 20 177l10 0c10 0 18 8 19 18l20 197c0 1 0 1 0 2 0 11-9 20-20 20z m-344 59c0-22-18-40-40-40-21 0-39 18-39 40 0 21 18 39 39 39 22 0 40-18 40-39z m19-166l0 47c0 33-26 60-59 60-32 0-59-27-59-60l0-47-48-123c-1-2-1-4-1-7 0-11 9-19 20-19l51 0 18-158 39 0 17 158 52 0c11 0 20 8 20 19 0 3-1 5-2 7z m69 205l40 0 0-512-40 0z"/>
<glyph glyph-name="attentiveness" unicode="&#68;" d="M321 242c-19-11-41-18-65-18-24 0-46 7-65 18-56-25-95-81-95-146l0-96 320 0 0 96c0 65-39 121-95 146z m-41-208c-6-4-14-7-23-7-10 0-19 3-25 7-6 5-10 11-10 18 0 8 4 14 10 19 6 4 13 6 23 7 10 0 18-3 24-8 7-4 10-10 10-18 0-7-3-13-9-18z m8 114c-1-4-4-8-8-14-7-11-12-17-15-22-2-5-5-10-7-16l-7 0c-1 6-3 12-4 16-2 3-8 11-17 25-5 8-8 16-8 24 0 9 3 15 9 20 6 5 15 8 25 8 11 0 19-3 26-9 5-5 8-12 8-20 0-4-1-8-2-12z m64 269c0 52-43 95-96 95-53 0-96-43-96-95-8-9-13-20-13-33 0-13 5-24 13-33 0-52 43-95 96-95 53 0 96 43 96 95 8 9 13 20 13 33 0 13-5 24-13 33z m-96-129c-19 0-35 16-35 35l70 0c0-19-16-35-35-35z"/>
<glyph glyph-name="availability" unicode="&#69;" d="M503 503c-13 12-32 12-45 0l-130-130-40 41c-6 5-14 9-23 9-17 0-31-14-31-32 0-8 3-16 9-22l63-63c6-6 14-9 22-9 9 0 17 3 23 9l152 152c12 13 12 32 0 45z m-175-230c-15 0-29 6-39 16l-63 63c-1 1-2 2-2 2l-126 0c-10 0-19 9-19 20 0 11 9 20 19 20l112 0c1 29 25 53 55 53 16 0 30-6 40-16l23-24 66 66c0 21-18 39-40 39l-315 0c-21 0-39-18-39-39l0-434c0-21 18-39 39-39l315 0c22 0 40 18 40 39l0 276-26-26c-10-10-24-16-40-16z m-33-155l-197 0c-10 0-19 9-19 20 0 11 9 20 19 20l197 0c11 0 20-9 20-20 0-11-9-20-20-20z m0 118l-197 0c-10 0-19 9-19 20 0 11 9 20 19 20l197 0c11 0 20-9 20-20 0-11-9-20-20-20z"/>
<glyph glyph-name="ambienceo" unicode="&#70;" d="M218 306c47 0 93-23 120-62l6-8 8 5c7 4 15 6 24 6 27 0 49-22 49-49 0-5-1-10-2-15l-3-7 6-4c24-17 38-44 38-73 0-49-39-89-88-89l-317 0c-27 0-49 22-49 49 0 27 22 49 49 49l19 0-4 13c-3 12-4 25-4 37 0 82 66 148 148 148m0 10c-88 0-159-70-159-158 0-13 2-27 5-39l-5 0c-32 0-59-27-59-60 0-32 27-59 59-59l317 0c54 0 99 44 99 99 0 33-17 63-43 81 2 6 3 12 3 18 0 33-27 59-59 59-11 0-21-3-29-8-29 41-76 67-129 67z m138 129c12 0 23-3 34-7 45-19 67-71 48-116-3-7-7-14-12-20l-13 13c3 5 5 9 7 14 15 36-2 77-37 91-9 4-18 6-27 6-28 0-54-17-64-43-3-6-4-12-5-18l-19 0c1 8 3 17 6 25 14 33 46 55 82 55m0 10c-39 0-76-23-91-61-6-13-8-26-8-39l40 0c-1 8 1 16 4 24 9 22 31 36 55 36 8 0 15-1 23-4 30-13 44-48 32-78-3-7-7-13-12-18l28-28c8 9 15 19 20 31 21 51-3 108-53 129-13 5-25 8-38 8z m42 1c1 0 2 0 3 0 4 0 8 2 10 6l15 36c2 5-1 11-6 13-5 2-11 0-13-5l-15-37c-2-5 1-10 6-13z m68-65c1 0 2 1 3 1l37 15c5 2 7 8 5 13-2 5-8 8-13 6l-36-16c-5-2-8-7-6-12 2-4 6-7 10-7z m40-86l-37 15c-5 2-10-1-13-6-2-5 1-11 6-13l36-15c2 0 3 0 4 0 4 0 8 2 9 6 2 5 0 10-5 13z m-205 157c2-4 6-6 10-6 1 0 2 0 3 0 5 3 8 8 6 13l-15 37c-3 5-8 7-13 5-5-2-8-8-6-13z m-95-55l37-15c1 0 2-1 3-1 4 0 8 3 9 7 3 5 0 10-5 12l-36 16c-5 2-11-1-13-6-2-5 0-11 5-13z"/>
<glyph glyph-name="serviceo" unicode="&#121;" d="M161 191c-56 0-102 45-102 101l0 8c-9 11-14 26-14 40 0 14 5 29 14 40l0 8c0 56 46 101 102 101 56 0 101-45 101-101l0-8c9-11 14-26 14-40 0-14-5-29-14-40l0-8c0-56-45-101-101-101z m0 286c-49 0-89-40-89-89l0-13-2-1c-8-10-12-22-12-34 0-12 4-24 12-34l2-1 0-13c0-49 40-89 89-89 49 0 89 40 89 89l0 13 1 1c8 10 12 22 12 34 0 12-4 24-12 34l-1 1 0 13c0 49-40 89-89 89z m0-241c-24 0-43 19-43 43l0 6 85 0 0-6c0-24-19-43-42-43z m-30 36c3-13 15-23 30-23 14 0 26 10 29 23z m190-249l-321 0 0 79c0 44 19 87 52 118l6 5 3-7c20-37 58-60 100-60 41 0 79 23 99 60l4 7 6-5c32-31 51-74 51-118l0-79z m-309 12l297 0 0 67c0 38-15 75-42 103-23-37-63-60-106-60-44 0-84 23-107 60-26-28-42-65-42-103z m194 33c-2 0-3 0-5 1-10 2-19 7-25 15-9-6-21-6-30 0-7-8-16-13-26-15-6-2-12 0-17 4l-1 0-1 2c0 1-1 2-2 3-9 16-14 35-13 53 0 10 8 18 18 18 15-1 29-7 41-16 9 6 22 6 32 0 11 9 25 15 40 16 0 0 0 0 0 0 10 0 18-8 18-18 1-18-3-36-13-53 0-1-1-2-2-3l-1-2-1 0c-3-3-8-5-12-5z m-28 34l4-6c5-8 13-13 22-15l1 0c2-1 4 0 5 1l0 1c0 0 1 0 1 1l0 0c8 15 12 31 12 47 0 3-3 5-6 5-13 0-26-6-36-16l-4-5-5 5c-6 6-17 6-23 0l-5-5-4 5c-10 10-23 16-36 16-3 0-5-2-5-5-1-17 3-33 11-47l1 0c0 0 0-1 0-1l0 0 1-1c1-1 2-2 5-1l0 0c9 2 17 7 22 15l4 6 6-5c6-6 17-6 23 0z m232 98c-28 0-53 18-62 45l-2 8 129 0-2-8c-9-27-34-45-63-45z m-46 41c9-18 26-29 46-29 20 0 38 11 47 29z m128 18l-163 0c-11 0-20 9-20 20 0 11 9 20 20 20l163 0c11 0 20-9 20-20 0-11-9-20-20-20z m-163 27c-4 0-8-3-8-7 0-4 4-8 8-8l163 0c4 0 8 4 8 8 0 4-4 7-8 7z m81 53c0 0-25 13 4 45 28 32-6 43-11 46 5-3 27-14-2-46-29-32 9-45 9-45z m50-23c0 0-26 16 3 56 29 40-6 53-10 57 4-4 26-17-2-57-29-40 9-56 9-56z m-99 0c0 0-18 10 2 33 21 23-4 31-7 33 3-2 19-10-2-33-20-23 7-33 7-33z"/>
<glyph glyph-name="stars1" unicode="&#57361;" d="M510 317c-5 14-17 24-31 26l-130 19-59 118c-6 13-19 21-34 21-15 0-28-8-34-21l-59-118-130-19c-14-2-26-12-31-26-5-15-1-30 10-39l94-93-22-130c-3-14 3-28 15-37 12-9 28-9 40-3l117 61 117-61c12-6 28-6 40 3 12 9 18 23 15 37l-22 130 94 93c11 9 15 24 10 39z"/>
<glyph glyph-name="stars2" unicode="&#57362;" d="M213 281c-2 6-7 10-13 11l-55 8-24 49c-3 6-8 9-14 9-7 0-12-3-15-9l-24-49-54-8c-6-1-11-5-13-11-2-6 0-12 4-16l39-38-9-55c-1-5 1-12 6-15 5-4 12-4 17-1l49 25 48-25c6-3 12-3 17 1 5 3 7 10 6 15l-9 55 40 38c4 4 5 10 4 16z m298 0c-2 6-7 10-13 11l-54 8-24 49c-3 6-8 9-15 9-6 0-11-3-14-9l-24-49-55-8c-6-1-11-5-13-11-1-6 0-12 4-16l40-38-9-55c-1-5 1-12 6-15 5-4 11-4 17-1l48 25 49-25c5-3 12-3 17 1 5 3 7 10 6 15l-9 55 39 38c4 4 6 10 4 16z"/>
<glyph glyph-name="frontdesko" unicode="&#57402;" d="M158 478c49 0 88-39 88-87l0-14 2-3c8-9 12-20 12-32 0-12-4-23-12-32l-2-3 0-14c0-48-39-87-88-87-48 0-87 39-87 87l0 14-3 3c-7 9-11 20-11 32 0 12 4 23 11 32l3 3 0 14c0 48 39 87 87 87m0-246c26 0 48 21 48 47l0 11-95 0 0-11c0-26 21-47 47-47m0 257c-54 0-97-44-97-98l0-10c-9-11-14-24-14-39 0-15 5-28 14-39l0-10c0-54 43-98 97-98 54 0 98 44 98 98l0 10c9 11 14 24 14 39 0 15-5 28-14 39l0 10c0 54-44 98-98 98z m0-247c-20 0-37 17-37 37l75 0c0-20-17-37-38-37z m110-45c24-27 38-62 38-99l0-64-133 0c7 4 12 12 12 22 0 14-12 26-27 26-14 0-26-12-26-26 0-10 5-18 12-22l-134 0 0 64c0 37 14 72 39 99 21-31 55-52 93-57-6-5-10-12-10-20 0-15 12-27 26-27 15 0 27 12 27 27 0 8-4 15-10 20 38 5 72 26 93 57m-2 17c-21-39-61-65-108-65-46 0-87 26-107 65-31-29-51-70-51-116l0-75 317 0 0 75c0 46-20 87-51 116z m-108-110c-9 0-16 7-16 16 0 8 7 16 16 16 9 0 16-8 16-16 0-9-7-16-16-16z m0-64c-9 0-16 7-16 16 0 8 7 16 16 16 9 0 16-8 16-16 0-9-7-16-16-16z m354 3l-117 0 0-20 117 0z m-58 60l8-1c19-3 35-18 39-37l-95 0c5 19 20 34 40 37l8 1m0 29c-6 0-10-4-10-9l0-11c-28-5-49-29-49-58l117 0c0 29-21 53-49 58l0 11c0 5-4 9-9 9z"/>
<glyph glyph-name="inroomamenitieso" unicode="&#57403;" d="M110 77l2-9c0 0 0-1 0-1 0-1-1-2-2-2-1 0-2 1-2 2 0 0 0 1 0 1l2 9m0 27c-3 0-6-2-6-5l-6-29c0-1 0-2 0-3 0-6 5-12 12-12 6 0 12 6 12 12 0 1 0 2 0 3l-6 29c-1 3-3 5-6 5z m292-27l2-9c0 0 0-1 0-1 0-1-1-2-2-2-1 0-2 1-2 2 0 0 0 1 0 1l2 9m0 27c-3 0-5-2-6-5l-6-29c0-1 0-2 0-3 0-6 6-12 12-12 7 0 12 6 12 12 0 1 0 2 0 3l-6 29c0 3-3 5-6 5z m-48-27l1-9c0 0 0-1 0-1 0-1 0-2-1-2-2 0-2 1-2 2l0 1 2 9m0 27c-3 0-6-2-6-5l-6-29c-1-1-1-2-1-3 0-6 6-12 13-12 6 0 12 6 12 12 0 1 0 2-1 3l-6 29c0 3-3 5-5 5z m-49-27l2-9c0 0 0-1 0-1 0-1-1-2-2-2-1 0-2 1-2 2 0 0 0 1 0 1l2 9m0 27c-3 0-6-2-6-5l-6-29c0-1 0-2 0-3 0-6 5-12 12-12 6 0 12 6 12 12 0 1 0 2 0 3l-6 29c-1 3-3 5-6 5z m-49-27l2-9c0 0 0-1 0-1 0-1-1-2-2-2-1 0-2 1-2 2 0 0 0 1 0 1l2 9m0 27c-3 0-5-2-6-5l-6-29c0-1 0-2 0-3 0-6 5-12 12-12 7 0 12 6 12 12 0 1 0 2 0 3l-6 29c-1 3-3 5-6 5z m-49-27l2-9c0 0 0-1 0-1 0-1-1-2-2-2-1 0-2 1-2 2 0 0 0 1 0 1l2 9m0 27c-3 0-5-2-6-5l-6-29c0-1 0-2 0-3 0-6 6-12 12-12 7 0 12 6 12 12 0 1 0 2 0 3l-6 29c0 3-3 5-6 5z m-49-27l2-9c0 0 0-1 0-1 0-1 0-2-2-2-1 0-1 1-1 2 0 0 0 1 0 1l1 9m0 27c-2 0-5-2-5-5l-6-29c-1-1-1-2-1-3 0-6 6-12 12-12 7 0 13 6 13 12 0 1 0 2-1 3l-6 29c0 3-3 5-6 5z m269 233c1 0 2 0 2-2l0-195c0-1-1-2-2-2l-342 0c-1 0-2 1-2 2l0 195c0 2 1 2 2 2l342 0m0 11l-342 0c-6 0-12-6-12-13l0-195c0-6 6-12 12-12l342 0c6 0 12 6 12 12l0 195c0 7-6 13-12 13z m61 99c7 0 14-7 14-14l0-63 0 0 0-10c0 0 0-1 0-1 0-7-7-14-14-14-8 0-15 7-15 14l0 23-434 0 0-23c0-7-7-14-15-14-7 0-14 7-14 14l0 1 0 0 0 10 0 63c0 7 7 14 14 14 8 0 15-7 15-14l0-23 434 0 0 23c0 7 7 14 15 14m0 10c-14 0-25-11-25-24l0-12-414 0 0 12c0 13-11 24-25 24-13 0-24-11-24-24l0-73 0 0c0 0 0 0 0-1 0-13 11-24 24-24 14 0 25 11 25 24 0 1 0 13 0 13l414 0 0-12c0 0 0 0 0-1 0-13 11-24 25-24 13 0 24 11 24 24 0 1 0 1 0 1l0 0 0 73c0 13-11 24-24 24z"/>
<glyph glyph-name="breakfasto" unicode="&#57404;" d="M203 370c8 0 15-7 15-15 0-9-7-16-15-16-9 0-16 7-16 16 0 8 7 15 16 15m0 10c-15 0-26-11-26-25 0-14 11-26 26-26 14 0 25 12 25 26 0 14-11 25-25 25z m-52-69c1 0 2-1 2-3 0-1-1-2-2-2-2 0-3 1-3 2 0 2 1 3 3 3m0 10c-7 0-13-6-13-13 0-7 6-12 13-12 7 0 13 5 13 12 0 7-6 13-13 13z m64-28c2 0 3-1 3-3 0-1-1-2-3-2-1 0-2 1-2 2 0 2 1 3 2 3m0 10c-7 0-12-6-12-13 0-7 5-13 12-13 7 0 13 6 13 13 0 7-6 13-13 13z m113 199c72 0 161-18 173-103 1-5 1-12-2-16-3-4-9-5-12-5l-10-1 1-10 12-243 0 0 0 0c0-1 0-1 0-2 0-7-4-13-10-16l-193-92-1 14c0 0 0 1 0 1l0 0 0 0-14 263-1 17 15 1 10 1 0 9c0 9-7 35-29 60-28 31-72 49-131 52-9 1-16 1-22 1-31 0-52-6-73-20l0 0-1 0c-20-17-19-38-19-42l0 0 0-1c1-4 3-13 11-13l15 0 1-16 8-269 0 0 0-11 12 0 2 0 199-42 1-1 1 0 12-6-1 0c-2-1-4-2-6-2-2 0-4 1-6 1l-1 1-1 0-199 42-1 1-1 0c-9 0-16 7-16 17l0 0 0 0-8 269-1 10-10 0c0 0 0 0 0 0-13 0-18 10-20 16-5 17 1 41 22 56 53 37 186 79 294 79m0 10c-113 0-247-43-300-81-41-29-35-89 4-91 0 0 0 0 0 0l9-268c0-15 11-28 26-28l199-42c3-1 6-2 10-2 3 0 7 1 10 2l199 95c9 4 15 14 15 25 0 1 0 2 0 3l-12 243c13 0 27 9 23 33-12 83-91 111-183 111z m-296-144c0 0-1 4-1 4 0 3-1 20 16 32 21 14 40 19 67 19 6 0 14-1 21-1 55-3 98-19 125-49 21-24 26-48 26-53l-26-1 1-27 14-263 0-1 0 0c0 0 0-1 1-1l-3 1-2 1-199 42-3 1-2 0 0 0 0 1-9 268-1 27-25 0z"/>
<glyph glyph-name="roomserviceo" unicode="&#57405;" d="M256 450c15 0 28-13 28-29 0 0 0-1 0-2l0-9 8-1c77-15 134-69 152-145l2-8 40 0c9 0 16-7 16-15 0-9-7-16-16-16l-460 0c-9 0-16 7-16 16 0 8 7 15 16 15l40 0 2 8c18 76 75 130 152 145l8 1 0 9c0 0 0 3 0 3 0 15 12 28 28 28m0 10c-21 0-38-17-38-38 0 0 0-3 0-3-78-15-141-71-160-153l-32 0c-15 0-26-11-26-25 0-14 11-26 26-26l460 0c15 0 26 12 26 26 0 14-11 25-26 25l-32 0c-19 82-82 138-160 153 0 0 0 2 0 2 0 21-17 39-38 39z m131-265c6 0 12-7 12-15 0 0 0 0-2-3-3-3-6-7-9-14-18-47-19-87-19-107l-95 0c-36 48-89 75-124 93-16 8-35 18-37 23 0 5 7 12 12 12 8 0 24-8 40-16 34-18 80-41 131-41 6 0 12 0 18 1 24 3 32 18 41 33 6 11 12 23 27 33 0 0 1 1 5 1m0 10c-4 0-8-1-11-3-36-24-29-60-63-64-6-1-12-1-17-1-76 0-144 58-171 58-11 0-23-12-23-23 0-25 108-44 167-126l111 0c0 0-6 52 18 113 4 12 12 13 12 21 0 13-11 25-23 25z"/>
<glyph glyph-name="roomo" unicode="&#57406;" d="M399 461l23-48c0 0 0-1 0-2 0 0-1-1-1-1l-76 0c0 0 0 1 0 1 0 1 0 3 0 4l23 46 31 0m0 10l-32 0c-3 0-6-1-7-4l-25-48c0-2-1-7-1-8 0-4 4-12 9-12l81 0c4 0 8 8 8 12 0 2 0 5-1 6l-24 49c-2 3-4 5-8 5z m-15 36l-15 0 0-31 15 0z m-371-123c5 0 7-5 7-10l0-190 67 0 0 21 118 0 0 90c0 5 2 9 7 10l195-39 1 0 1 0c4 0 6-4 6-10l0-72 66 0 0 72c0 4 2 9 8 9 6 0 8-5 8-9l0-236c0-5-2-10-8-10-6 0-8 5-8 10l0 103-461 0 0-103c0-5-2-10-7-10-6 0-8 5-8 10l0 354c0 5 2 10 8 10m0 10c-11 0-18-9-18-20l0-354c0-11 7-20 18-20 11 0 18 9 18 20l0 93 440 0 0-93c0-11 7-20 18-20 11 0 18 9 18 20l0 236c0 11-7 20-18 20-11 0-18-9-18-20l0-61-46 0 0 61c0 11-5 20-16 20l-196 39c-11 0-18-9-18-20l0-80-118 0 0-20-46 0 0 179c0 11-7 20-18 20z m104-89c16 0 29-13 29-29 0-16-13-29-29-29-16 0-29 13-29 29 0 16 13 29 29 29m0 10c-22 0-40-18-40-39 0-22 18-40 40-40 22 0 39 18 39 40 0 21-17 39-39 39z"/>
<glyph glyph-name="locationo" unicode="&#57407;" d="M256 449c49 0 88-40 88-88 0-74-32-142-88-189-56 47-88 115-88 189 0 48 39 88 88 88m0-138c27 0 50 22 50 50 0 27-23 49-50 49-27 0-50-22-50-49 0-28 23-50 50-50m0 148c-54 0-98-44-98-98 0-82 38-155 98-202 60 47 98 120 98 202 0 54-44 98-98 98z m0-138c-22 0-39 18-39 40 0 21 17 39 39 39 22 0 39-18 39-39 0-22-17-40-39-40z m169-3l73-255-484 0 73 255 24 0c1-6 2-12 3-18l-15 0-2-8-56-197-4-13 438 0-4 13-56 197-2 8-15 0c1 6 2 12 3 18l24 0m8 11l-41 0c-1-14-4-27-7-40l20 0 56-197-410 0 56 197 20 0c-3 13-6 26-7 40l-41 0-79-276 512 0z"/>
<glyph glyph-name="facilitieso" unicode="&#57408;" d="M256 502c7 0 13-3 18-7l94-76 16-14 0 68c0 5 5 9 10 9l39 0c5 0 10-4 10-9l0-115 3-4 45-36c7-6 11-14 11-23 0-16-13-29-29-29-7 0-14 3-19 7l-192 157-6 5-6-5-192-157c-5-4-12-7-19-7-16 0-29 13-29 29 0 9 4 17 11 23l217 177c5 4 11 7 18 7m0 10c-9 0-18-3-25-9l-217-177c-8-7-14-18-14-31 0-21 18-39 39-39 10 0 19 3 25 9l192 157 192-157c7-6 15-9 25-9 21 0 39 18 39 39 0 13-6 24-14 31l-45 36 0 111c0 10-9 19-20 19l-39 0c-11 0-20-9-20-19l0-46-93 76c-7 6-16 9-25 9z m0-164c7 0 14-2 19-6l0-1 0 0 1 0 117-102c7-6 10-14 10-22l0-178c0-8-4-17-10-22-6-4-12-7-19-7l-185 0c16 18 30 34 38 43 12-5 24-7 36-7 27 0 53 11 72 30 24 24 35 59 27 93l-4 19-13-13-56-57-44 12-12 44 57 56 13 13-19 4c-7 2-14 3-21 3-27 0-53-11-72-30-28-28-37-71-23-108-14-12-36-32-59-54l0 159c0 8 3 16 10 22l119 102 0 0 0 1c5 4 12 6 18 6m0 10c-9 0-18-3-24-8-1-1-1-1-1-1l-119-103c-8-7-14-17-14-29l0-178c0-1 1-3 1-4 32 30 68 63 81 74-16 34-10 76 18 104 18 18 41 26 65 26 6 0 13 0 19-2l-60-60 14-56 56-14 60 60c7-29-1-61-24-84-18-18-42-27-65-27-13 0-26 3-39 9-9-11-33-38-59-65l209 0c10 0 18 3 25 9 9 7 15 18 15 30l0 178c0 11-6 22-14 29l-118 103c0 0 0 0-1 1-6 5-15 8-25 8z"/>
</font>
</defs>
</svg>
